<svg xmlns="http://www.w3.org/2000/svg" version="1.1" xmlns:xlink="http://www.w3.org/1999/xlink" xmlns:svgjs="http://svgjs.dev/svgjs" width="1440" height="560" preserveAspectRatio="none" viewBox="0 0 1440 560"><g mask="url(&quot;#SvgjsMask1050&quot;)" fill="none"><rect width="1440" height="560" x="0" y="0" fill="rgba(3, 0, 28, 1)"></rect><g mask="url(&quot;#SvgjsMask1051&quot;)"><path d="M689 273L403 273L195 481" stroke-width="4.33" stroke="rgba(33, 22, 20, 1)"></path><path d="M682.5 273 a6.5 6.5 0 1 0 13 0 a6.5 6.5 0 1 0 -13 0zM188.5 481 a6.5 6.5 0 1 0 13 0 a6.5 6.5 0 1 0 -13 0z" fill="rgba(33, 22, 20, 1)"></path><path d="M1365 13L871 13" stroke-width="4.33" stroke="rgba(33, 22, 20, 1)"></path><path d="M1358.5 13 a6.5 6.5 0 1 0 13 0 a6.5 6.5 0 1 0 -13 0zM864.5 13 a6.5 6.5 0 1 0 13 0 a6.5 6.5 0 1 0 -13 0z" fill="rgba(33, 22, 20, 1)"></path><path d="M455 507L507 559L949 559" stroke-width="4.33" stroke="rgba(33, 22, 20, 1)"></path><path d="M448.5 507 a6.5 6.5 0 1 0 13 0 a6.5 6.5 0 1 0 -13 0zM942.5 559 a6.5 6.5 0 1 0 13 0 a6.5 6.5 0 1 0 -13 0z" fill="rgba(33, 22, 20, 1)"></path><path d="M1287 39L1053 273L819 273L793 299" stroke-width="4.33" stroke="rgba(33, 22, 20, 1)"></path><path d="M1280.5 39 a6.5 6.5 0 1 0 13 0 a6.5 6.5 0 1 0 -13 0zM786.5 299 a6.5 6.5 0 1 0 13 0 a6.5 6.5 0 1 0 -13 0z" fill="rgba(33, 22, 20, 1)"></path><path d="M39 169L195 13L533 13" stroke-width="4.33" stroke="rgba(33, 22, 20, 1)"></path><path d="M32.5 169 a6.5 6.5 0 1 0 13 0 a6.5 6.5 0 1 0 -13 0zM526.5 13 a6.5 6.5 0 1 0 13 0 a6.5 6.5 0 1 0 -13 0z" fill="rgba(33, 22, 20, 1)"></path><path d="M1443 195L1443 325L1209 559L1079 559" stroke-width="4.33" stroke="rgba(33, 22, 20, 1)"></path><path d="M1436.5 195 a6.5 6.5 0 1 0 13 0 a6.5 6.5 0 1 0 -13 0zM1072.5 559 a6.5 6.5 0 1 0 13 0 a6.5 6.5 0 1 0 -13 0z" fill="rgba(33, 22, 20, 1)"></path><path d="M403 377L377 351L377 325L403 299L559 299L793 533L819 533" stroke-width="4.33" stroke="rgba(33, 22, 20, 1)"></path><path d="M396.5 377 a6.5 6.5 0 1 0 13 0 a6.5 6.5 0 1 0 -13 0zM812.5 533 a6.5 6.5 0 1 0 13 0 a6.5 6.5 0 1 0 -13 0z" fill="rgba(33, 22, 20, 1)"></path><path d="M403 533L299 429L273 429L143 559L13 559" stroke-width="4.33" stroke="rgba(33, 22, 20, 1)"></path><path d="M396.5 533 a6.5 6.5 0 1 0 13 0 a6.5 6.5 0 1 0 -13 0zM6.5 559 a6.5 6.5 0 1 0 13 0 a6.5 6.5 0 1 0 -13 0z" fill="rgba(33, 22, 20, 1)"></path><path d="M585 39L195 39L117 117L117 143" stroke-width="4.33" stroke="rgba(33, 22, 20, 1)"></path><path d="M578.5 39 a6.5 6.5 0 1 0 13 0 a6.5 6.5 0 1 0 -13 0zM110.5 143 a6.5 6.5 0 1 0 13 0 a6.5 6.5 0 1 0 -13 0z" fill="rgba(33, 22, 20, 1)"></path><path d="M1027 169L897 39L611 39L533 117" stroke-width="4.33" stroke="rgba(33, 22, 20, 1)"></path><path d="M1020.5 169 a6.5 6.5 0 1 0 13 0 a6.5 6.5 0 1 0 -13 0zM526.5 117 a6.5 6.5 0 1 0 13 0 a6.5 6.5 0 1 0 -13 0z" fill="rgba(33, 22, 20, 1)"></path><path d="M429 117L377 65L195 65L143 117L143 325" stroke-width="4.33" stroke="rgba(33, 22, 20, 1)"></path><path d="M422.5 117 a6.5 6.5 0 1 0 13 0 a6.5 6.5 0 1 0 -13 0zM136.5 325 a6.5 6.5 0 1 0 13 0 a6.5 6.5 0 1 0 -13 0z" fill="rgba(33, 22, 20, 1)"></path><path d="M897 533L975 533L1001 559L1053 559L1391 221" stroke-width="4.33" stroke="rgba(33, 22, 20, 1)"></path><path d="M890.5 533 a6.5 6.5 0 1 0 13 0 a6.5 6.5 0 1 0 -13 0zM1384.5 221 a6.5 6.5 0 1 0 13 0 a6.5 6.5 0 1 0 -13 0z" fill="rgba(33, 22, 20, 1)"></path><path d="M455 351L637 533L715 533L741 507" stroke-width="4.33" stroke="rgba(33, 22, 20, 1)"></path><path d="M448.5 351 a6.5 6.5 0 1 0 13 0 a6.5 6.5 0 1 0 -13 0zM734.5 507 a6.5 6.5 0 1 0 13 0 a6.5 6.5 0 1 0 -13 0z" fill="rgba(33, 22, 20, 1)"></path><path d="M1209 91L1261 39" stroke-width="4.33" stroke="rgba(33, 22, 20, 1)"></path><path d="M1202.5 91 a6.5 6.5 0 1 0 13 0 a6.5 6.5 0 1 0 -13 0zM1254.5 39 a6.5 6.5 0 1 0 13 0 a6.5 6.5 0 1 0 -13 0z" fill="rgba(33, 22, 20, 1)"></path><path d="M1209 455L1209 429L1417 221L1417 91L1443 65L1443 13" stroke-width="4.33" stroke="rgba(33, 22, 20, 1)"></path><path d="M1202.5 455 a6.5 6.5 0 1 0 13 0 a6.5 6.5 0 1 0 -13 0zM1436.5 13 a6.5 6.5 0 1 0 13 0 a6.5 6.5 0 1 0 -13 0z" fill="rgba(33, 22, 20, 1)"></path><path d="M637 117L949 117L1053 221L1053 247" stroke-width="4.33" stroke="rgba(33, 22, 20, 1)"></path><path d="M630.5 117 a6.5 6.5 0 1 0 13 0 a6.5 6.5 0 1 0 -13 0zM1046.5 247 a6.5 6.5 0 1 0 13 0 a6.5 6.5 0 1 0 -13 0z" fill="rgba(33, 22, 20, 1)"></path><path d="M949 481L923 507L793 507L585 299" stroke-width="4.33" stroke="rgba(33, 22, 20, 1)"></path><path d="M942.5 481 a6.5 6.5 0 1 0 13 0 a6.5 6.5 0 1 0 -13 0zM578.5 299 a6.5 6.5 0 1 0 13 0 a6.5 6.5 0 1 0 -13 0z" fill="rgba(33, 22, 20, 1)"></path><path d="M1235 429L1417 247" stroke-width="4.33" stroke="rgba(33, 22, 20, 1)"></path><path d="M1228.5 429 a6.5 6.5 0 1 0 13 0 a6.5 6.5 0 1 0 -13 0zM1410.5 247 a6.5 6.5 0 1 0 13 0 a6.5 6.5 0 1 0 -13 0z" fill="rgba(33, 22, 20, 1)"></path><path d="M1105 299L1105 481L1053 533L1001 533L975 507L949 507" stroke-width="4.33" stroke="rgba(33, 22, 20, 1)"></path><path d="M1098.5 299 a6.5 6.5 0 1 0 13 0 a6.5 6.5 0 1 0 -13 0zM942.5 507 a6.5 6.5 0 1 0 13 0 a6.5 6.5 0 1 0 -13 0z" fill="rgba(33, 22, 20, 1)"></path><path d="M1287 273L1209 351L1131 351" stroke-width="4.33" stroke="rgba(33, 22, 20, 1)"></path><path d="M1280.5 273 a6.5 6.5 0 1 0 13 0 a6.5 6.5 0 1 0 -13 0zM1124.5 351 a6.5 6.5 0 1 0 13 0 a6.5 6.5 0 1 0 -13 0z" fill="rgba(33, 22, 20, 1)"></path><path d="M1209 221L1209 325" stroke-width="4.33" stroke="rgba(33, 22, 20, 1)"></path><path d="M1202.5 221 a6.5 6.5 0 1 0 13 0 a6.5 6.5 0 1 0 -13 0zM1202.5 325 a6.5 6.5 0 1 0 13 0 a6.5 6.5 0 1 0 -13 0z" fill="rgba(33, 22, 20, 1)"></path><path d="M195 351L195 455L117 533L13 533" stroke-width="4.33" stroke="rgba(33, 22, 20, 1)"></path><path d="M188.5 351 a6.5 6.5 0 1 0 13 0 a6.5 6.5 0 1 0 -13 0zM6.5 533 a6.5 6.5 0 1 0 13 0 a6.5 6.5 0 1 0 -13 0z" fill="rgba(33, 22, 20, 1)"></path><path d="M767 377L767 455L793 481L871 481L923 429L1079 429" stroke-width="4.33" stroke="rgba(33, 22, 20, 1)"></path><path d="M760.5 377 a6.5 6.5 0 1 0 13 0 a6.5 6.5 0 1 0 -13 0zM1072.5 429 a6.5 6.5 0 1 0 13 0 a6.5 6.5 0 1 0 -13 0z" fill="rgba(33, 22, 20, 1)"></path><path d="M559 195L611 195L663 143L949 143L1027 221L1027 247" stroke-width="4.33" stroke="rgba(33, 22, 20, 1)"></path><path d="M552.5 195 a6.5 6.5 0 1 0 13 0 a6.5 6.5 0 1 0 -13 0zM1020.5 247 a6.5 6.5 0 1 0 13 0 a6.5 6.5 0 1 0 -13 0z" fill="rgba(33, 22, 20, 1)"></path><path d="M793 91L923 91" stroke-width="4.33" stroke="rgba(33, 22, 20, 1)"></path><path d="M786.5 91 a6.5 6.5 0 1 0 13 0 a6.5 6.5 0 1 0 -13 0zM916.5 91 a6.5 6.5 0 1 0 13 0 a6.5 6.5 0 1 0 -13 0z" fill="rgba(33, 22, 20, 1)"></path><path d="M377 481L455 559L481 559" stroke-width="4.33" stroke="rgba(33, 22, 20, 1)"></path><path d="M370.5 481 a6.5 6.5 0 1 0 13 0 a6.5 6.5 0 1 0 -13 0zM474.5 559 a6.5 6.5 0 1 0 13 0 a6.5 6.5 0 1 0 -13 0z" fill="rgba(33, 22, 20, 1)"></path><path d="M1157 507L1235 507L1417 325L1417 273" stroke-width="4.33" stroke="rgba(33, 22, 20, 1)"></path><path d="M1150.5 507 a6.5 6.5 0 1 0 13 0 a6.5 6.5 0 1 0 -13 0zM1410.5 273 a6.5 6.5 0 1 0 13 0 a6.5 6.5 0 1 0 -13 0z" fill="rgba(33, 22, 20, 1)"></path><path d="M169 273L351 91L377 91L533 247L663 247" stroke-width="4.33" stroke="rgba(33, 22, 20, 1)"></path><path d="M162.5 273 a6.5 6.5 0 1 0 13 0 a6.5 6.5 0 1 0 -13 0zM656.5 247 a6.5 6.5 0 1 0 13 0 a6.5 6.5 0 1 0 -13 0z" fill="rgba(33, 22, 20, 1)"></path><path d="M1001 39L923 39" stroke-width="4.33" stroke="rgba(33, 22, 20, 1)"></path><path d="M994.5 39 a6.5 6.5 0 1 0 13 0 a6.5 6.5 0 1 0 -13 0zM916.5 39 a6.5 6.5 0 1 0 13 0 a6.5 6.5 0 1 0 -13 0z" fill="rgba(33, 22, 20, 1)"></path><path d="M715 377L741 403L741 429" stroke-width="4.33" stroke="rgba(33, 22, 20, 1)"></path><path d="M708.5 377 a6.5 6.5 0 1 0 13 0 a6.5 6.5 0 1 0 -13 0zM734.5 429 a6.5 6.5 0 1 0 13 0 a6.5 6.5 0 1 0 -13 0z" fill="rgba(33, 22, 20, 1)"></path><path d="M715 13L845 13" stroke-width="4.33" stroke="rgba(33, 22, 20, 1)"></path><path d="M708.5 13 a6.5 6.5 0 1 0 13 0 a6.5 6.5 0 1 0 -13 0zM838.5 13 a6.5 6.5 0 1 0 13 0 a6.5 6.5 0 1 0 -13 0z" fill="rgba(33, 22, 20, 1)"></path><path d="M975 91L1183 91L1235 39" stroke-width="4.33" stroke="rgba(33, 22, 20, 1)"></path><path d="M968.5 91 a6.5 6.5 0 1 0 13 0 a6.5 6.5 0 1 0 -13 0zM1228.5 39 a6.5 6.5 0 1 0 13 0 a6.5 6.5 0 1 0 -13 0z" fill="rgba(33, 22, 20, 1)"></path><path d="M1365 143L1391 169L1391 195L1313 273" stroke-width="4.33" stroke="rgba(33, 22, 20, 1)"></path><path d="M1358.5 143 a6.5 6.5 0 1 0 13 0 a6.5 6.5 0 1 0 -13 0zM1306.5 273 a6.5 6.5 0 1 0 13 0 a6.5 6.5 0 1 0 -13 0z" fill="rgba(33, 22, 20, 1)"></path><path d="M689 169L715 195L923 195L949 221L975 221L1001 247" stroke-width="4.33" stroke="rgba(33, 22, 20, 1)"></path><path d="M682.5 169 a6.5 6.5 0 1 0 13 0 a6.5 6.5 0 1 0 -13 0zM994.5 247 a6.5 6.5 0 1 0 13 0 a6.5 6.5 0 1 0 -13 0z" fill="rgba(33, 22, 20, 1)"></path><path d="M169 299L169 351L13 507" stroke-width="4.33" stroke="rgba(33, 22, 20, 1)"></path><path d="M162.5 299 a6.5 6.5 0 1 0 13 0 a6.5 6.5 0 1 0 -13 0zM6.5 507 a6.5 6.5 0 1 0 13 0 a6.5 6.5 0 1 0 -13 0z" fill="rgba(33, 22, 20, 1)"></path><path d="M39 221L39 455L13 481" stroke-width="4.33" stroke="rgba(33, 22, 20, 1)"></path><path d="M32.5 221 a6.5 6.5 0 1 0 13 0 a6.5 6.5 0 1 0 -13 0zM6.5 481 a6.5 6.5 0 1 0 13 0 a6.5 6.5 0 1 0 -13 0z" fill="rgba(33, 22, 20, 1)"></path><path d="M351 117L377 117L507 247" stroke-width="4.33" stroke="rgba(33, 22, 20, 1)"></path><path d="M344.5 117 a6.5 6.5 0 1 0 13 0 a6.5 6.5 0 1 0 -13 0zM500.5 247 a6.5 6.5 0 1 0 13 0 a6.5 6.5 0 1 0 -13 0z" fill="rgba(33, 22, 20, 1)"></path><path d="M871 455L871 325L897 299L1079 299L1105 273L1183 273" stroke-width="4.33" stroke="rgba(33, 22, 20, 1)"></path><path d="M864.5 455 a6.5 6.5 0 1 0 13 0 a6.5 6.5 0 1 0 -13 0zM1176.5 273 a6.5 6.5 0 1 0 13 0 a6.5 6.5 0 1 0 -13 0z" fill="rgba(33, 22, 20, 1)"></path><path d="M559 533L559 507L481 429L325 429L299 403" stroke-width="4.33" stroke="rgba(33, 22, 20, 1)"></path><path d="M552.5 533 a6.5 6.5 0 1 0 13 0 a6.5 6.5 0 1 0 -13 0zM292.5 403 a6.5 6.5 0 1 0 13 0 a6.5 6.5 0 1 0 -13 0z" fill="rgba(33, 22, 20, 1)"></path><path d="M1183 221L1131 221L1105 247" stroke-width="4.33" stroke="rgba(33, 22, 20, 1)"></path><path d="M1176.5 221 a6.5 6.5 0 1 0 13 0 a6.5 6.5 0 1 0 -13 0zM1098.5 247 a6.5 6.5 0 1 0 13 0 a6.5 6.5 0 1 0 -13 0z" fill="rgba(33, 22, 20, 1)"></path><path d="M1443 91L1443 169" stroke-width="4.33" stroke="rgba(33, 22, 20, 1)"></path><path d="M1436.5 91 a6.5 6.5 0 1 0 13 0 a6.5 6.5 0 1 0 -13 0zM1436.5 169 a6.5 6.5 0 1 0 13 0 a6.5 6.5 0 1 0 -13 0z" fill="rgba(33, 22, 20, 1)"></path><path d="M1417 455L1391 429L1391 403L1443 351" stroke-width="4.33" stroke="rgba(33, 22, 20, 1)"></path><path d="M1410.5 455 a6.5 6.5 0 1 0 13 0 a6.5 6.5 0 1 0 -13 0zM1436.5 351 a6.5 6.5 0 1 0 13 0 a6.5 6.5 0 1 0 -13 0z" fill="rgba(33, 22, 20, 1)"></path><path d="M1157 143L1079 221" stroke-width="4.33" stroke="rgba(33, 22, 20, 1)"></path><path d="M1150.5 143 a6.5 6.5 0 1 0 13 0 a6.5 6.5 0 1 0 -13 0zM1072.5 221 a6.5 6.5 0 1 0 13 0 a6.5 6.5 0 1 0 -13 0z" fill="rgba(33, 22, 20, 1)"></path><path d="M91 455L169 377" stroke-width="4.33" stroke="rgba(33, 22, 20, 1)"></path><path d="M84.5 455 a6.5 6.5 0 1 0 13 0 a6.5 6.5 0 1 0 -13 0zM162.5 377 a6.5 6.5 0 1 0 13 0 a6.5 6.5 0 1 0 -13 0z" fill="rgba(33, 22, 20, 1)"></path><path d="M1157 195L1313 39L1417 39" stroke-width="4.33" stroke="rgba(33, 22, 20, 1)"></path><path d="M1150.5 195 a6.5 6.5 0 1 0 13 0 a6.5 6.5 0 1 0 -13 0zM1410.5 39 a6.5 6.5 0 1 0 13 0 a6.5 6.5 0 1 0 -13 0z" fill="rgba(33, 22, 20, 1)"></path><path d="M195 273L377 273L429 221L455 221L481 247" stroke-width="4.33" stroke="rgba(33, 22, 20, 1)"></path><path d="M188.5 273 a6.5 6.5 0 1 0 13 0 a6.5 6.5 0 1 0 -13 0zM474.5 247 a6.5 6.5 0 1 0 13 0 a6.5 6.5 0 1 0 -13 0z" fill="rgba(33, 22, 20, 1)"></path><path d="M1313 143L1339 143L1417 65" stroke-width="4.33" stroke="rgba(33, 22, 20, 1)"></path><path d="M1306.5 143 a6.5 6.5 0 1 0 13 0 a6.5 6.5 0 1 0 -13 0zM1410.5 65 a6.5 6.5 0 1 0 13 0 a6.5 6.5 0 1 0 -13 0z" fill="rgba(33, 22, 20, 1)"></path><path d="M65 299L65 429" stroke-width="4.33" stroke="rgba(33, 22, 20, 1)"></path><path d="M58.5 299 a6.5 6.5 0 1 0 13 0 a6.5 6.5 0 1 0 -13 0zM58.5 429 a6.5 6.5 0 1 0 13 0 a6.5 6.5 0 1 0 -13 0z" fill="rgba(33, 22, 20, 1)"></path><path d="M1313 559L1443 559" stroke-width="4.33" stroke="rgba(33, 22, 20, 1)"></path><path d="M1306.5 559 a6.5 6.5 0 1 0 13 0 a6.5 6.5 0 1 0 -13 0zM1436.5 559 a6.5 6.5 0 1 0 13 0 a6.5 6.5 0 1 0 -13 0z" fill="rgba(33, 22, 20, 1)"></path><path d="M65 117L13 169L13 455" stroke-width="4.33" stroke="rgba(33, 22, 20, 1)"></path><path d="M58.5 117 a6.5 6.5 0 1 0 13 0 a6.5 6.5 0 1 0 -13 0zM6.5 455 a6.5 6.5 0 1 0 13 0 a6.5 6.5 0 1 0 -13 0z" fill="rgba(33, 22, 20, 1)"></path><path d="M1027 351L1053 325L1079 325" stroke-width="4.33" stroke="rgba(33, 22, 20, 1)"></path><path d="M1020.5 351 a6.5 6.5 0 1 0 13 0 a6.5 6.5 0 1 0 -13 0zM1072.5 325 a6.5 6.5 0 1 0 13 0 a6.5 6.5 0 1 0 -13 0z" fill="rgba(33, 22, 20, 1)"></path><path d="M195 325L221 299L351 299" stroke-width="4.33" stroke="rgba(33, 22, 20, 1)"></path><path d="M188.5 325 a6.5 6.5 0 1 0 13 0 a6.5 6.5 0 1 0 -13 0zM344.5 299 a6.5 6.5 0 1 0 13 0 a6.5 6.5 0 1 0 -13 0z" fill="rgba(33, 22, 20, 1)"></path><path d="M403 169L351 169L273 247L247 247" stroke-width="4.33" stroke="rgba(33, 22, 20, 1)"></path><path d="M396.5 169 a6.5 6.5 0 1 0 13 0 a6.5 6.5 0 1 0 -13 0zM240.5 247 a6.5 6.5 0 1 0 13 0 a6.5 6.5 0 1 0 -13 0z" fill="rgba(33, 22, 20, 1)"></path><path d="M1365 481L1313 481L1235 559" stroke-width="4.33" stroke="rgba(33, 22, 20, 1)"></path><path d="M1358.5 481 a6.5 6.5 0 1 0 13 0 a6.5 6.5 0 1 0 -13 0zM1228.5 559 a6.5 6.5 0 1 0 13 0 a6.5 6.5 0 1 0 -13 0z" fill="rgba(33, 22, 20, 1)"></path><path d="M455 377L403 325" stroke-width="4.33" stroke="rgba(33, 22, 20, 1)"></path><path d="M448.5 377 a6.5 6.5 0 1 0 13 0 a6.5 6.5 0 1 0 -13 0zM396.5 325 a6.5 6.5 0 1 0 13 0 a6.5 6.5 0 1 0 -13 0z" fill="rgba(33, 22, 20, 1)"></path><path d="M637 403L585 455" stroke-width="4.33" stroke="rgba(33, 22, 20, 1)"></path><path d="M630.5 403 a6.5 6.5 0 1 0 13 0 a6.5 6.5 0 1 0 -13 0zM578.5 455 a6.5 6.5 0 1 0 13 0 a6.5 6.5 0 1 0 -13 0z" fill="rgba(33, 22, 20, 1)"></path><path d="M1053 455L923 455L897 481" stroke-width="4.33" stroke="rgba(33, 22, 20, 1)"></path><path d="M1046.5 455 a6.5 6.5 0 1 0 13 0 a6.5 6.5 0 1 0 -13 0zM890.5 481 a6.5 6.5 0 1 0 13 0 a6.5 6.5 0 1 0 -13 0z" fill="rgba(33, 22, 20, 1)"></path><path d="M169 169L221 117L299 117L325 91" stroke-width="4.33" stroke="rgba(33, 22, 20, 1)"></path><path d="M162.5 169 a6.5 6.5 0 1 0 13 0 a6.5 6.5 0 1 0 -13 0zM318.5 91 a6.5 6.5 0 1 0 13 0 a6.5 6.5 0 1 0 -13 0z" fill="rgba(33, 22, 20, 1)"></path><path d="M221 533L195 533L169 559" stroke-width="4.33" stroke="rgba(33, 22, 20, 1)"></path><path d="M214.5 533 a6.5 6.5 0 1 0 13 0 a6.5 6.5 0 1 0 -13 0zM162.5 559 a6.5 6.5 0 1 0 13 0 a6.5 6.5 0 1 0 -13 0z" fill="rgba(33, 22, 20, 1)"></path><path d="M1053 117L1053 195" stroke-width="4.33" stroke="rgba(33, 22, 20, 1)"></path><path d="M1046.5 117 a6.5 6.5 0 1 0 13 0 a6.5 6.5 0 1 0 -13 0zM1046.5 195 a6.5 6.5 0 1 0 13 0 a6.5 6.5 0 1 0 -13 0z" fill="rgba(33, 22, 20, 1)"></path><path d="M1001 507L1053 507L1079 481L1079 455" stroke-width="4.33" stroke="rgba(33, 22, 20, 1)"></path><path d="M994.5 507 a6.5 6.5 0 1 0 13 0 a6.5 6.5 0 1 0 -13 0zM1072.5 455 a6.5 6.5 0 1 0 13 0 a6.5 6.5 0 1 0 -13 0z" fill="rgba(33, 22, 20, 1)"></path><path d="M169 117L195 91L299 91" stroke-width="4.33" stroke="rgba(33, 22, 20, 1)"></path><path d="M162.5 117 a6.5 6.5 0 1 0 13 0 a6.5 6.5 0 1 0 -13 0zM292.5 91 a6.5 6.5 0 1 0 13 0 a6.5 6.5 0 1 0 -13 0z" fill="rgba(33, 22, 20, 1)"></path><path d="M91 13L91 91" stroke-width="4.33" stroke="rgba(33, 22, 20, 1)"></path><path d="M84.5 13 a6.5 6.5 0 1 0 13 0 a6.5 6.5 0 1 0 -13 0zM84.5 91 a6.5 6.5 0 1 0 13 0 a6.5 6.5 0 1 0 -13 0z" fill="rgba(33, 22, 20, 1)"></path><path d="M1235 143L1313 65L1391 65" stroke-width="4.33" stroke="rgba(33, 22, 20, 1)"></path><path d="M1228.5 143 a6.5 6.5 0 1 0 13 0 a6.5 6.5 0 1 0 -13 0zM1384.5 65 a6.5 6.5 0 1 0 13 0 a6.5 6.5 0 1 0 -13 0z" fill="rgba(33, 22, 20, 1)"></path><path d="M1027 403L975 403L897 325" stroke-width="4.33" stroke="rgba(33, 22, 20, 1)"></path><path d="M1020.5 403 a6.5 6.5 0 1 0 13 0 a6.5 6.5 0 1 0 -13 0zM890.5 325 a6.5 6.5 0 1 0 13 0 a6.5 6.5 0 1 0 -13 0z" fill="rgba(33, 22, 20, 1)"></path><path d="M65 39L65 91L13 143" stroke-width="4.33" stroke="rgba(33, 22, 20, 1)"></path><path d="M58.5 39 a6.5 6.5 0 1 0 13 0 a6.5 6.5 0 1 0 -13 0zM6.5 143 a6.5 6.5 0 1 0 13 0 a6.5 6.5 0 1 0 -13 0z" fill="rgba(33, 22, 20, 1)"></path><path d="M715 221L715 351L689 377" stroke-width="4.33" stroke="rgba(33, 22, 20, 1)"></path><path d="M708.5 221 a6.5 6.5 0 1 0 13 0 a6.5 6.5 0 1 0 -13 0zM682.5 377 a6.5 6.5 0 1 0 13 0 a6.5 6.5 0 1 0 -13 0z" fill="rgba(33, 22, 20, 1)"></path><path d="M1235 299L1365 169" stroke-width="4.33" stroke="rgba(33, 22, 20, 1)"></path><path d="M1228.5 299 a6.5 6.5 0 1 0 13 0 a6.5 6.5 0 1 0 -13 0zM1358.5 169 a6.5 6.5 0 1 0 13 0 a6.5 6.5 0 1 0 -13 0z" fill="rgba(33, 22, 20, 1)"></path><path d="M819 429L845 403L845 299" stroke-width="4.33" stroke="rgba(33, 22, 20, 1)"></path><path d="M812.5 429 a6.5 6.5 0 1 0 13 0 a6.5 6.5 0 1 0 -13 0zM838.5 299 a6.5 6.5 0 1 0 13 0 a6.5 6.5 0 1 0 -13 0z" fill="rgba(33, 22, 20, 1)"></path><path d="M481 481L533 533" stroke-width="4.33" stroke="rgba(33, 22, 20, 1)"></path><path d="M474.5 481 a6.5 6.5 0 1 0 13 0 a6.5 6.5 0 1 0 -13 0zM526.5 533 a6.5 6.5 0 1 0 13 0 a6.5 6.5 0 1 0 -13 0z" fill="rgba(33, 22, 20, 1)"></path><path d="M637 507L611 481L611 455L637 429L663 429L715 481L715 507" stroke-width="4.33" stroke="rgba(33, 22, 20, 1)"></path><path d="M630.5 507 a6.5 6.5 0 1 0 13 0 a6.5 6.5 0 1 0 -13 0zM708.5 507 a6.5 6.5 0 1 0 13 0 a6.5 6.5 0 1 0 -13 0z" fill="rgba(33, 22, 20, 1)"></path><path d="M741 221L923 221L949 247L975 247" stroke-width="4.33" stroke="rgba(33, 22, 20, 1)"></path><path d="M734.5 221 a6.5 6.5 0 1 0 13 0 a6.5 6.5 0 1 0 -13 0zM968.5 247 a6.5 6.5 0 1 0 13 0 a6.5 6.5 0 1 0 -13 0z" fill="rgba(33, 22, 20, 1)"></path><path d="M91 247L39 195" stroke-width="4.33" stroke="rgba(33, 22, 20, 1)"></path><path d="M84.5 247 a6.5 6.5 0 1 0 13 0 a6.5 6.5 0 1 0 -13 0zM32.5 195 a6.5 6.5 0 1 0 13 0 a6.5 6.5 0 1 0 -13 0z" fill="rgba(33, 22, 20, 1)"></path><path d="M377 403L351 377L325 377" stroke-width="4.33" stroke="rgba(33, 22, 20, 1)"></path><path d="M370.5 403 a6.5 6.5 0 1 0 13 0 a6.5 6.5 0 1 0 -13 0zM318.5 377 a6.5 6.5 0 1 0 13 0 a6.5 6.5 0 1 0 -13 0z" fill="rgba(33, 22, 20, 1)"></path><path d="M767 169L949 169L975 195" stroke-width="4.33" stroke="rgba(33, 22, 20, 1)"></path><path d="M760.5 169 a6.5 6.5 0 1 0 13 0 a6.5 6.5 0 1 0 -13 0zM968.5 195 a6.5 6.5 0 1 0 13 0 a6.5 6.5 0 1 0 -13 0z" fill="rgba(33, 22, 20, 1)"></path><path d="M117 13L117 65" stroke-width="4.33" stroke="rgba(33, 22, 20, 1)"></path><path d="M110.5 13 a6.5 6.5 0 1 0 13 0 a6.5 6.5 0 1 0 -13 0zM110.5 65 a6.5 6.5 0 1 0 13 0 a6.5 6.5 0 1 0 -13 0z" fill="rgba(33, 22, 20, 1)"></path><path d="M65 273L117 273" stroke-width="4.33" stroke="rgba(33, 22, 20, 1)"></path><path d="M58.5 273 a6.5 6.5 0 1 0 13 0 a6.5 6.5 0 1 0 -13 0zM110.5 273 a6.5 6.5 0 1 0 13 0 a6.5 6.5 0 1 0 -13 0z" fill="rgba(33, 22, 20, 1)"></path><path d="M221 325L221 429" stroke-width="4.33" stroke="rgba(33, 22, 20, 1)"></path><path d="M214.5 325 a6.5 6.5 0 1 0 13 0 a6.5 6.5 0 1 0 -13 0zM214.5 429 a6.5 6.5 0 1 0 13 0 a6.5 6.5 0 1 0 -13 0z" fill="rgba(33, 22, 20, 1)"></path><path d="M455 325L559 325L611 377L611 403L585 429L559 429L481 351" stroke-width="4.33" stroke="rgba(33, 22, 20, 1)"></path><path d="M448.5 325 a6.5 6.5 0 1 0 13 0 a6.5 6.5 0 1 0 -13 0zM474.5 351 a6.5 6.5 0 1 0 13 0 a6.5 6.5 0 1 0 -13 0z" fill="rgba(33, 22, 20, 1)"></path><path d="M1339 351L1209 481L1157 481" stroke-width="4.33" stroke="rgba(33, 22, 20, 1)"></path><path d="M1332.5 351 a6.5 6.5 0 1 0 13 0 a6.5 6.5 0 1 0 -13 0zM1150.5 481 a6.5 6.5 0 1 0 13 0 a6.5 6.5 0 1 0 -13 0z" fill="rgba(33, 22, 20, 1)"></path><path d="M1287 195L1313 169L1339 169" stroke-width="4.33" stroke="rgba(33, 22, 20, 1)"></path><path d="M1280.5 195 a6.5 6.5 0 1 0 13 0 a6.5 6.5 0 1 0 -13 0zM1332.5 169 a6.5 6.5 0 1 0 13 0 a6.5 6.5 0 1 0 -13 0z" fill="rgba(33, 22, 20, 1)"></path><path d="M507 169L481 169L455 143L455 65" stroke-width="4.33" stroke="rgba(33, 22, 20, 1)"></path><path d="M500.5 169 a6.5 6.5 0 1 0 13 0 a6.5 6.5 0 1 0 -13 0zM448.5 65 a6.5 6.5 0 1 0 13 0 a6.5 6.5 0 1 0 -13 0z" fill="rgba(33, 22, 20, 1)"></path><path d="M871 65L715 65" stroke-width="4.33" stroke="rgba(33, 22, 20, 1)"></path><path d="M864.5 65 a6.5 6.5 0 1 0 13 0 a6.5 6.5 0 1 0 -13 0zM708.5 65 a6.5 6.5 0 1 0 13 0 a6.5 6.5 0 1 0 -13 0z" fill="rgba(33, 22, 20, 1)"></path><path d="M1443 377L1417 403L1417 429L1443 455L1443 507" stroke-width="4.33" stroke="rgba(33, 22, 20, 1)"></path><path d="M1436.5 377 a6.5 6.5 0 1 0 13 0 a6.5 6.5 0 1 0 -13 0zM1436.5 507 a6.5 6.5 0 1 0 13 0 a6.5 6.5 0 1 0 -13 0z" fill="rgba(33, 22, 20, 1)"></path><path d="M1261 247L1209 195L1183 195" stroke-width="4.33" stroke="rgba(33, 22, 20, 1)"></path><path d="M1254.5 247 a6.5 6.5 0 1 0 13 0 a6.5 6.5 0 1 0 -13 0zM1176.5 195 a6.5 6.5 0 1 0 13 0 a6.5 6.5 0 1 0 -13 0z" fill="rgba(33, 22, 20, 1)"></path><path d="M559 117L611 117L663 65" stroke-width="4.33" stroke="rgba(33, 22, 20, 1)"></path><path d="M552.5 117 a6.5 6.5 0 1 0 13 0 a6.5 6.5 0 1 0 -13 0zM656.5 65 a6.5 6.5 0 1 0 13 0 a6.5 6.5 0 1 0 -13 0z" fill="rgba(33, 22, 20, 1)"></path><path d="M559 143L481 143" stroke-width="4.33" stroke="rgba(33, 22, 20, 1)"></path><path d="M552.5 143 a6.5 6.5 0 1 0 13 0 a6.5 6.5 0 1 0 -13 0zM474.5 143 a6.5 6.5 0 1 0 13 0 a6.5 6.5 0 1 0 -13 0z" fill="rgba(33, 22, 20, 1)"></path><path d="M1261 169L1261 221" stroke-width="4.33" stroke="rgba(33, 22, 20, 1)"></path><path d="M1254.5 169 a6.5 6.5 0 1 0 13 0 a6.5 6.5 0 1 0 -13 0zM1254.5 221 a6.5 6.5 0 1 0 13 0 a6.5 6.5 0 1 0 -13 0z" fill="rgba(33, 22, 20, 1)"></path><path d="M377 559L429 559" stroke-width="4.33" stroke="rgba(33, 22, 20, 1)"></path><path d="M370.5 559 a6.5 6.5 0 1 0 13 0 a6.5 6.5 0 1 0 -13 0zM422.5 559 a6.5 6.5 0 1 0 13 0 a6.5 6.5 0 1 0 -13 0z" fill="rgba(33, 22, 20, 1)"></path><path d="M767 247L767 351L741 377" stroke-width="4.33" stroke="rgba(33, 22, 20, 1)"></path><path d="M760.5 247 a6.5 6.5 0 1 0 13 0 a6.5 6.5 0 1 0 -13 0zM734.5 377 a6.5 6.5 0 1 0 13 0 a6.5 6.5 0 1 0 -13 0z" fill="rgba(33, 22, 20, 1)"></path><path d="M195 221L273 143" stroke-width="4.33" stroke="rgba(33, 22, 20, 1)"></path><path d="M188.5 221 a6.5 6.5 0 1 0 13 0 a6.5 6.5 0 1 0 -13 0zM266.5 143 a6.5 6.5 0 1 0 13 0 a6.5 6.5 0 1 0 -13 0z" fill="rgba(33, 22, 20, 1)"></path><path d="M273 351L273 377L247 403" stroke-width="4.33" stroke="rgba(33, 22, 20, 1)"></path><path d="M266.5 351 a6.5 6.5 0 1 0 13 0 a6.5 6.5 0 1 0 -13 0zM240.5 403 a6.5 6.5 0 1 0 13 0 a6.5 6.5 0 1 0 -13 0z" fill="rgba(33, 22, 20, 1)"></path><path d="M299 195L273 221L247 221" stroke-width="4.33" stroke="rgba(33, 22, 20, 1)"></path><path d="M292.5 195 a6.5 6.5 0 1 0 13 0 a6.5 6.5 0 1 0 -13 0zM240.5 221 a6.5 6.5 0 1 0 13 0 a6.5 6.5 0 1 0 -13 0z" fill="rgba(33, 22, 20, 1)"></path><path d="M429 455L481 455" stroke-width="4.33" stroke="rgba(33, 22, 20, 1)"></path><path d="M422.5 455 a6.5 6.5 0 1 0 13 0 a6.5 6.5 0 1 0 -13 0zM474.5 455 a6.5 6.5 0 1 0 13 0 a6.5 6.5 0 1 0 -13 0z" fill="rgba(33, 22, 20, 1)"></path><path d="M143 351L117 325L117 299" stroke-width="4.33" stroke="rgba(33, 22, 20, 1)"></path><path d="M136.5 351 a6.5 6.5 0 1 0 13 0 a6.5 6.5 0 1 0 -13 0zM110.5 299 a6.5 6.5 0 1 0 13 0 a6.5 6.5 0 1 0 -13 0z" fill="rgba(33, 22, 20, 1)"></path><path d="M299 559L221 559" stroke-width="4.33" stroke="rgba(33, 22, 20, 1)"></path><path d="M292.5 559 a6.5 6.5 0 1 0 13 0 a6.5 6.5 0 1 0 -13 0zM214.5 559 a6.5 6.5 0 1 0 13 0 a6.5 6.5 0 1 0 -13 0z" fill="rgba(33, 22, 20, 1)"></path><path d="M1287 169L1287 117" stroke-width="4.33" stroke="rgba(33, 22, 20, 1)"></path><path d="M1280.5 169 a6.5 6.5 0 1 0 13 0 a6.5 6.5 0 1 0 -13 0zM1280.5 117 a6.5 6.5 0 1 0 13 0 a6.5 6.5 0 1 0 -13 0z" fill="rgba(33, 22, 20, 1)"></path><path d="M13 117L39 91L39 13" stroke-width="4.33" stroke="rgba(33, 22, 20, 1)"></path><path d="M6.5 117 a6.5 6.5 0 1 0 13 0 a6.5 6.5 0 1 0 -13 0zM32.5 13 a6.5 6.5 0 1 0 13 0 a6.5 6.5 0 1 0 -13 0z" fill="rgba(33, 22, 20, 1)"></path><path d="M793 351L793 325L819 299" stroke-width="4.33" stroke="rgba(33, 22, 20, 1)"></path><path d="M786.5 351 a6.5 6.5 0 1 0 13 0 a6.5 6.5 0 1 0 -13 0zM812.5 299 a6.5 6.5 0 1 0 13 0 a6.5 6.5 0 1 0 -13 0z" fill="rgba(33, 22, 20, 1)"></path><path d="M1079 169L1105 169L1157 117L1183 117" stroke-width="4.33" stroke="rgba(33, 22, 20, 1)"></path><path d="M1072.5 169 a6.5 6.5 0 1 0 13 0 a6.5 6.5 0 1 0 -13 0zM1176.5 117 a6.5 6.5 0 1 0 13 0 a6.5 6.5 0 1 0 -13 0z" fill="rgba(33, 22, 20, 1)"></path><path d="M507 65L559 65" stroke-width="4.33" stroke="rgba(33, 22, 20, 1)"></path><path d="M500.5 65 a6.5 6.5 0 1 0 13 0 a6.5 6.5 0 1 0 -13 0zM552.5 65 a6.5 6.5 0 1 0 13 0 a6.5 6.5 0 1 0 -13 0z" fill="rgba(33, 22, 20, 1)"></path><path d="M247 351L273 325L325 325" stroke-width="4.33" stroke="rgba(33, 22, 20, 1)"></path><path d="M240.5 351 a6.5 6.5 0 1 0 13 0 a6.5 6.5 0 1 0 -13 0zM318.5 325 a6.5 6.5 0 1 0 13 0 a6.5 6.5 0 1 0 -13 0z" fill="rgba(33, 22, 20, 1)"></path><path d="M1183 65L1157 39L1027 39" stroke-width="4.33" stroke="rgba(33, 22, 20, 1)"></path><path d="M1176.5 65 a6.5 6.5 0 1 0 13 0 a6.5 6.5 0 1 0 -13 0zM1020.5 39 a6.5 6.5 0 1 0 13 0 a6.5 6.5 0 1 0 -13 0z" fill="rgba(33, 22, 20, 1)"></path><path d="M403 455L351 455" stroke-width="4.33" stroke="rgba(33, 22, 20, 1)"></path><path d="M396.5 455 a6.5 6.5 0 1 0 13 0 a6.5 6.5 0 1 0 -13 0zM344.5 455 a6.5 6.5 0 1 0 13 0 a6.5 6.5 0 1 0 -13 0z" fill="rgba(33, 22, 20, 1)"></path><path d="M273 533L299 533L325 559L351 559L377 533" stroke-width="4.33" stroke="rgba(33, 22, 20, 1)"></path><path d="M266.5 533 a6.5 6.5 0 1 0 13 0 a6.5 6.5 0 1 0 -13 0zM370.5 533 a6.5 6.5 0 1 0 13 0 a6.5 6.5 0 1 0 -13 0z" fill="rgba(33, 22, 20, 1)"></path><path d="M195 169L195 195L169 221L169 247" stroke-width="4.33" stroke="rgba(33, 22, 20, 1)"></path><path d="M188.5 169 a6.5 6.5 0 1 0 13 0 a6.5 6.5 0 1 0 -13 0zM162.5 247 a6.5 6.5 0 1 0 13 0 a6.5 6.5 0 1 0 -13 0z" fill="rgba(33, 22, 20, 1)"></path><path d="M13 13L13 65" stroke-width="4.33" stroke="rgba(33, 22, 20, 1)"></path><path d="M6.5 13 a6.5 6.5 0 1 0 13 0 a6.5 6.5 0 1 0 -13 0zM6.5 65 a6.5 6.5 0 1 0 13 0 a6.5 6.5 0 1 0 -13 0z" fill="rgba(33, 22, 20, 1)"></path><path d="M741 325L741 247" stroke-width="4.33" stroke="rgba(33, 22, 20, 1)"></path><path d="M734.5 325 a6.5 6.5 0 1 0 13 0 a6.5 6.5 0 1 0 -13 0zM734.5 247 a6.5 6.5 0 1 0 13 0 a6.5 6.5 0 1 0 -13 0z" fill="rgba(33, 22, 20, 1)"></path><path d="M975 351L949 351L923 325" stroke-width="4.33" stroke="rgba(33, 22, 20, 1)"></path><path d="M968.5 351 a6.5 6.5 0 1 0 13 0 a6.5 6.5 0 1 0 -13 0zM916.5 325 a6.5 6.5 0 1 0 13 0 a6.5 6.5 0 1 0 -13 0z" fill="rgba(33, 22, 20, 1)"></path><path d="M923 403L923 377L897 351" stroke-width="4.33" stroke="rgba(33, 22, 20, 1)"></path><path d="M916.5 403 a6.5 6.5 0 1 0 13 0 a6.5 6.5 0 1 0 -13 0zM890.5 351 a6.5 6.5 0 1 0 13 0 a6.5 6.5 0 1 0 -13 0z" fill="rgba(33, 22, 20, 1)"></path><path d="M1313 507L1339 533L1417 533" stroke-width="4.33" stroke="rgba(33, 22, 20, 1)"></path><path d="M1306.5 507 a6.5 6.5 0 1 0 13 0 a6.5 6.5 0 1 0 -13 0zM1410.5 533 a6.5 6.5 0 1 0 13 0 a6.5 6.5 0 1 0 -13 0z" fill="rgba(33, 22, 20, 1)"></path><path d="M793 403L793 377L819 351L819 325" stroke-width="4.33" stroke="rgba(33, 22, 20, 1)"></path><path d="M786.5 403 a6.5 6.5 0 1 0 13 0 a6.5 6.5 0 1 0 -13 0zM812.5 325 a6.5 6.5 0 1 0 13 0 a6.5 6.5 0 1 0 -13 0z" fill="rgba(33, 22, 20, 1)"></path><path d="M1365 507L1391 481L1417 481" stroke-width="4.33" stroke="rgba(33, 22, 20, 1)"></path><path d="M1358.5 507 a6.5 6.5 0 1 0 13 0 a6.5 6.5 0 1 0 -13 0zM1410.5 481 a6.5 6.5 0 1 0 13 0 a6.5 6.5 0 1 0 -13 0z" fill="rgba(33, 22, 20, 1)"></path><path d="M1053 403L1027 377L975 377" stroke-width="4.33" stroke="rgba(33, 22, 20, 1)"></path><path d="M1046.5 403 a6.5 6.5 0 1 0 13 0 a6.5 6.5 0 1 0 -13 0zM968.5 377 a6.5 6.5 0 1 0 13 0 a6.5 6.5 0 1 0 -13 0z" fill="rgba(33, 22, 20, 1)"></path><path d="M611 221L559 221" stroke-width="4.33" stroke="rgba(33, 22, 20, 1)"></path><path d="M604.5 221 a6.5 6.5 0 1 0 13 0 a6.5 6.5 0 1 0 -13 0zM552.5 221 a6.5 6.5 0 1 0 13 0 a6.5 6.5 0 1 0 -13 0z" fill="rgba(33, 22, 20, 1)"></path><path d="M481 65L507 91L533 91" stroke-width="4.33" stroke="rgba(33, 22, 20, 1)"></path><path d="M474.5 65 a6.5 6.5 0 1 0 13 0 a6.5 6.5 0 1 0 -13 0zM526.5 91 a6.5 6.5 0 1 0 13 0 a6.5 6.5 0 1 0 -13 0z" fill="rgba(33, 22, 20, 1)"></path><path d="M819 247L923 247" stroke-width="4.33" stroke="rgba(33, 22, 20, 1)"></path><path d="M812.5 247 a6.5 6.5 0 1 0 13 0 a6.5 6.5 0 1 0 -13 0zM916.5 247 a6.5 6.5 0 1 0 13 0 a6.5 6.5 0 1 0 -13 0z" fill="rgba(33, 22, 20, 1)"></path><path d="M767 91L715 91" stroke-width="4.33" stroke="rgba(33, 22, 20, 1)"></path><path d="M760.5 91 a6.5 6.5 0 1 0 13 0 a6.5 6.5 0 1 0 -13 0zM708.5 91 a6.5 6.5 0 1 0 13 0 a6.5 6.5 0 1 0 -13 0z" fill="rgba(33, 22, 20, 1)"></path><path d="M65 195L65 169L91 143" stroke-width="4.33" stroke="rgba(33, 22, 20, 1)"></path><path d="M58.5 195 a6.5 6.5 0 1 0 13 0 a6.5 6.5 0 1 0 -13 0zM84.5 143 a6.5 6.5 0 1 0 13 0 a6.5 6.5 0 1 0 -13 0z" fill="rgba(33, 22, 20, 1)"></path><path d="M507 351L559 351" stroke-width="4.33" stroke="rgba(33, 22, 20, 1)"></path><path d="M500.5 351 a6.5 6.5 0 1 0 13 0 a6.5 6.5 0 1 0 -13 0zM552.5 351 a6.5 6.5 0 1 0 13 0 a6.5 6.5 0 1 0 -13 0z" fill="rgba(33, 22, 20, 1)"></path><path d="M585 13L637 13" stroke-width="4.33" stroke="rgba(33, 22, 20, 1)"></path><path d="M578.5 13 a6.5 6.5 0 1 0 13 0 a6.5 6.5 0 1 0 -13 0zM630.5 13 a6.5 6.5 0 1 0 13 0 a6.5 6.5 0 1 0 -13 0z" fill="rgba(33, 22, 20, 1)"></path><path d="M273 507L325 507" stroke-width="4.33" stroke="rgba(33, 22, 20, 1)"></path><path d="M266.5 507 a6.5 6.5 0 1 0 13 0 a6.5 6.5 0 1 0 -13 0zM318.5 507 a6.5 6.5 0 1 0 13 0 a6.5 6.5 0 1 0 -13 0z" fill="rgba(33, 22, 20, 1)"></path></g></g><defs><mask id="SvgjsMask1050"><rect width="1440" height="560" fill="#ffffff"></rect></mask><mask id="SvgjsMask1051"><rect width="1440" height="560" fill="white"></rect><path d="M685.75 273 a3.25 3.25 0 1 0 6.5 0 a3.25 3.25 0 1 0 -6.5 0zM191.75 481 a3.25 3.25 0 1 0 6.5 0 a3.25 3.25 0 1 0 -6.5 0z" fill="black"></path><path d="M1361.75 13 a3.25 3.25 0 1 0 6.5 0 a3.25 3.25 0 1 0 -6.5 0zM867.75 13 a3.25 3.25 0 1 0 6.5 0 a3.25 3.25 0 1 0 -6.5 0z" fill="black"></path><path d="M451.75 507 a3.25 3.25 0 1 0 6.5 0 a3.25 3.25 0 1 0 -6.5 0zM945.75 559 a3.25 3.25 0 1 0 6.5 0 a3.25 3.25 0 1 0 -6.5 0z" fill="black"></path><path d="M1283.75 39 a3.25 3.25 0 1 0 6.5 0 a3.25 3.25 0 1 0 -6.5 0zM789.75 299 a3.25 3.25 0 1 0 6.5 0 a3.25 3.25 0 1 0 -6.5 0z" fill="black"></path><path d="M35.75 169 a3.25 3.25 0 1 0 6.5 0 a3.25 3.25 0 1 0 -6.5 0zM529.75 13 a3.25 3.25 0 1 0 6.5 0 a3.25 3.25 0 1 0 -6.5 0z" fill="black"></path><path d="M1439.75 195 a3.25 3.25 0 1 0 6.5 0 a3.25 3.25 0 1 0 -6.5 0zM1075.75 559 a3.25 3.25 0 1 0 6.5 0 a3.25 3.25 0 1 0 -6.5 0z" fill="black"></path><path d="M399.75 377 a3.25 3.25 0 1 0 6.5 0 a3.25 3.25 0 1 0 -6.5 0zM815.75 533 a3.25 3.25 0 1 0 6.5 0 a3.25 3.25 0 1 0 -6.5 0z" fill="black"></path><path d="M399.75 533 a3.25 3.25 0 1 0 6.5 0 a3.25 3.25 0 1 0 -6.5 0zM9.75 559 a3.25 3.25 0 1 0 6.5 0 a3.25 3.25 0 1 0 -6.5 0z" fill="black"></path><path d="M581.75 39 a3.25 3.25 0 1 0 6.5 0 a3.25 3.25 0 1 0 -6.5 0zM113.75 143 a3.25 3.25 0 1 0 6.5 0 a3.25 3.25 0 1 0 -6.5 0z" fill="black"></path><path d="M1023.75 169 a3.25 3.25 0 1 0 6.5 0 a3.25 3.25 0 1 0 -6.5 0zM529.75 117 a3.25 3.25 0 1 0 6.5 0 a3.25 3.25 0 1 0 -6.5 0z" fill="black"></path><path d="M425.75 117 a3.25 3.25 0 1 0 6.5 0 a3.25 3.25 0 1 0 -6.5 0zM139.75 325 a3.25 3.25 0 1 0 6.5 0 a3.25 3.25 0 1 0 -6.5 0z" fill="black"></path><path d="M893.75 533 a3.25 3.25 0 1 0 6.5 0 a3.25 3.25 0 1 0 -6.5 0zM1387.75 221 a3.25 3.25 0 1 0 6.5 0 a3.25 3.25 0 1 0 -6.5 0z" fill="black"></path><path d="M451.75 351 a3.25 3.25 0 1 0 6.5 0 a3.25 3.25 0 1 0 -6.5 0zM737.75 507 a3.25 3.25 0 1 0 6.5 0 a3.25 3.25 0 1 0 -6.5 0z" fill="black"></path><path d="M1205.75 91 a3.25 3.25 0 1 0 6.5 0 a3.25 3.25 0 1 0 -6.5 0zM1257.75 39 a3.25 3.25 0 1 0 6.5 0 a3.25 3.25 0 1 0 -6.5 0z" fill="black"></path><path d="M1205.75 455 a3.25 3.25 0 1 0 6.5 0 a3.25 3.25 0 1 0 -6.5 0zM1439.75 13 a3.25 3.25 0 1 0 6.5 0 a3.25 3.25 0 1 0 -6.5 0z" fill="black"></path><path d="M633.75 117 a3.25 3.25 0 1 0 6.5 0 a3.25 3.25 0 1 0 -6.5 0zM1049.75 247 a3.25 3.25 0 1 0 6.5 0 a3.25 3.25 0 1 0 -6.5 0z" fill="black"></path><path d="M945.75 481 a3.25 3.25 0 1 0 6.5 0 a3.25 3.25 0 1 0 -6.5 0zM581.75 299 a3.25 3.25 0 1 0 6.5 0 a3.25 3.25 0 1 0 -6.5 0z" fill="black"></path><path d="M1231.75 429 a3.25 3.25 0 1 0 6.5 0 a3.25 3.25 0 1 0 -6.5 0zM1413.75 247 a3.25 3.25 0 1 0 6.5 0 a3.25 3.25 0 1 0 -6.5 0z" fill="black"></path><path d="M1101.75 299 a3.25 3.25 0 1 0 6.5 0 a3.25 3.25 0 1 0 -6.5 0zM945.75 507 a3.25 3.25 0 1 0 6.5 0 a3.25 3.25 0 1 0 -6.5 0z" fill="black"></path><path d="M1283.75 273 a3.25 3.25 0 1 0 6.5 0 a3.25 3.25 0 1 0 -6.5 0zM1127.75 351 a3.25 3.25 0 1 0 6.5 0 a3.25 3.25 0 1 0 -6.5 0z" fill="black"></path><path d="M1205.75 221 a3.25 3.25 0 1 0 6.5 0 a3.25 3.25 0 1 0 -6.5 0zM1205.75 325 a3.25 3.25 0 1 0 6.5 0 a3.25 3.25 0 1 0 -6.5 0z" fill="black"></path><path d="M191.75 351 a3.25 3.25 0 1 0 6.5 0 a3.25 3.25 0 1 0 -6.5 0zM9.75 533 a3.25 3.25 0 1 0 6.5 0 a3.25 3.25 0 1 0 -6.5 0z" fill="black"></path><path d="M763.75 377 a3.25 3.25 0 1 0 6.5 0 a3.25 3.25 0 1 0 -6.5 0zM1075.75 429 a3.25 3.25 0 1 0 6.5 0 a3.25 3.25 0 1 0 -6.5 0z" fill="black"></path><path d="M555.75 195 a3.25 3.25 0 1 0 6.5 0 a3.25 3.25 0 1 0 -6.5 0zM1023.75 247 a3.25 3.25 0 1 0 6.5 0 a3.25 3.25 0 1 0 -6.5 0z" fill="black"></path><path d="M789.75 91 a3.25 3.25 0 1 0 6.5 0 a3.25 3.25 0 1 0 -6.5 0zM919.75 91 a3.25 3.25 0 1 0 6.5 0 a3.25 3.25 0 1 0 -6.5 0z" fill="black"></path><path d="M373.75 481 a3.25 3.25 0 1 0 6.5 0 a3.25 3.25 0 1 0 -6.5 0zM477.75 559 a3.25 3.25 0 1 0 6.5 0 a3.25 3.25 0 1 0 -6.5 0z" fill="black"></path><path d="M1153.75 507 a3.25 3.25 0 1 0 6.5 0 a3.25 3.25 0 1 0 -6.5 0zM1413.75 273 a3.25 3.25 0 1 0 6.5 0 a3.25 3.25 0 1 0 -6.5 0z" fill="black"></path><path d="M165.75 273 a3.25 3.25 0 1 0 6.5 0 a3.25 3.25 0 1 0 -6.5 0zM659.75 247 a3.25 3.25 0 1 0 6.5 0 a3.25 3.25 0 1 0 -6.5 0z" fill="black"></path><path d="M997.75 39 a3.25 3.25 0 1 0 6.5 0 a3.25 3.25 0 1 0 -6.5 0zM919.75 39 a3.25 3.25 0 1 0 6.5 0 a3.25 3.25 0 1 0 -6.5 0z" fill="black"></path><path d="M711.75 377 a3.25 3.25 0 1 0 6.5 0 a3.25 3.25 0 1 0 -6.5 0zM737.75 429 a3.25 3.25 0 1 0 6.5 0 a3.25 3.25 0 1 0 -6.5 0z" fill="black"></path><path d="M711.75 13 a3.25 3.25 0 1 0 6.5 0 a3.25 3.25 0 1 0 -6.5 0zM841.75 13 a3.25 3.25 0 1 0 6.5 0 a3.25 3.25 0 1 0 -6.5 0z" fill="black"></path><path d="M971.75 91 a3.25 3.25 0 1 0 6.5 0 a3.25 3.25 0 1 0 -6.5 0zM1231.75 39 a3.25 3.25 0 1 0 6.5 0 a3.25 3.25 0 1 0 -6.5 0z" fill="black"></path><path d="M1361.75 143 a3.25 3.25 0 1 0 6.5 0 a3.25 3.25 0 1 0 -6.5 0zM1309.75 273 a3.25 3.25 0 1 0 6.5 0 a3.25 3.25 0 1 0 -6.5 0z" fill="black"></path><path d="M685.75 169 a3.25 3.25 0 1 0 6.5 0 a3.25 3.25 0 1 0 -6.5 0zM997.75 247 a3.25 3.25 0 1 0 6.5 0 a3.25 3.25 0 1 0 -6.5 0z" fill="black"></path><path d="M165.75 299 a3.25 3.25 0 1 0 6.5 0 a3.25 3.25 0 1 0 -6.5 0zM9.75 507 a3.25 3.25 0 1 0 6.5 0 a3.25 3.25 0 1 0 -6.5 0z" fill="black"></path><path d="M35.75 221 a3.25 3.25 0 1 0 6.5 0 a3.25 3.25 0 1 0 -6.5 0zM9.75 481 a3.25 3.25 0 1 0 6.5 0 a3.25 3.25 0 1 0 -6.5 0z" fill="black"></path><path d="M347.75 117 a3.25 3.25 0 1 0 6.5 0 a3.25 3.25 0 1 0 -6.5 0zM503.75 247 a3.25 3.25 0 1 0 6.5 0 a3.25 3.25 0 1 0 -6.5 0z" fill="black"></path><path d="M867.75 455 a3.25 3.25 0 1 0 6.5 0 a3.25 3.25 0 1 0 -6.5 0zM1179.75 273 a3.25 3.25 0 1 0 6.5 0 a3.25 3.25 0 1 0 -6.5 0z" fill="black"></path><path d="M555.75 533 a3.25 3.25 0 1 0 6.5 0 a3.25 3.25 0 1 0 -6.5 0zM295.75 403 a3.25 3.25 0 1 0 6.5 0 a3.25 3.25 0 1 0 -6.5 0z" fill="black"></path><path d="M1179.75 221 a3.25 3.25 0 1 0 6.5 0 a3.25 3.25 0 1 0 -6.5 0zM1101.75 247 a3.25 3.25 0 1 0 6.5 0 a3.25 3.25 0 1 0 -6.5 0z" fill="black"></path><path d="M1439.75 91 a3.25 3.25 0 1 0 6.5 0 a3.25 3.25 0 1 0 -6.5 0zM1439.75 169 a3.25 3.25 0 1 0 6.5 0 a3.25 3.25 0 1 0 -6.5 0z" fill="black"></path><path d="M1413.75 455 a3.25 3.25 0 1 0 6.5 0 a3.25 3.25 0 1 0 -6.5 0zM1439.75 351 a3.25 3.25 0 1 0 6.5 0 a3.25 3.25 0 1 0 -6.5 0z" fill="black"></path><path d="M1153.75 143 a3.25 3.25 0 1 0 6.5 0 a3.25 3.25 0 1 0 -6.5 0zM1075.75 221 a3.25 3.25 0 1 0 6.5 0 a3.25 3.25 0 1 0 -6.5 0z" fill="black"></path><path d="M87.75 455 a3.25 3.25 0 1 0 6.5 0 a3.25 3.25 0 1 0 -6.5 0zM165.75 377 a3.25 3.25 0 1 0 6.5 0 a3.25 3.25 0 1 0 -6.5 0z" fill="black"></path><path d="M1153.75 195 a3.25 3.25 0 1 0 6.5 0 a3.25 3.25 0 1 0 -6.5 0zM1413.75 39 a3.25 3.25 0 1 0 6.5 0 a3.25 3.25 0 1 0 -6.5 0z" fill="black"></path><path d="M191.75 273 a3.25 3.25 0 1 0 6.5 0 a3.25 3.25 0 1 0 -6.5 0zM477.75 247 a3.25 3.25 0 1 0 6.5 0 a3.25 3.25 0 1 0 -6.5 0z" fill="black"></path><path d="M1309.75 143 a3.25 3.25 0 1 0 6.5 0 a3.25 3.25 0 1 0 -6.5 0zM1413.75 65 a3.25 3.25 0 1 0 6.5 0 a3.25 3.25 0 1 0 -6.5 0z" fill="black"></path><path d="M61.75 299 a3.25 3.25 0 1 0 6.5 0 a3.25 3.25 0 1 0 -6.5 0zM61.75 429 a3.25 3.25 0 1 0 6.5 0 a3.25 3.25 0 1 0 -6.5 0z" fill="black"></path><path d="M1309.75 559 a3.25 3.25 0 1 0 6.5 0 a3.25 3.25 0 1 0 -6.5 0zM1439.75 559 a3.25 3.25 0 1 0 6.5 0 a3.25 3.25 0 1 0 -6.5 0z" fill="black"></path><path d="M61.75 117 a3.25 3.25 0 1 0 6.5 0 a3.25 3.25 0 1 0 -6.5 0zM9.75 455 a3.25 3.25 0 1 0 6.5 0 a3.25 3.25 0 1 0 -6.5 0z" fill="black"></path><path d="M1023.75 351 a3.25 3.25 0 1 0 6.5 0 a3.25 3.25 0 1 0 -6.5 0zM1075.75 325 a3.25 3.25 0 1 0 6.5 0 a3.25 3.25 0 1 0 -6.5 0z" fill="black"></path><path d="M191.75 325 a3.25 3.25 0 1 0 6.5 0 a3.25 3.25 0 1 0 -6.5 0zM347.75 299 a3.25 3.25 0 1 0 6.5 0 a3.25 3.25 0 1 0 -6.5 0z" fill="black"></path><path d="M399.75 169 a3.25 3.25 0 1 0 6.5 0 a3.25 3.25 0 1 0 -6.5 0zM243.75 247 a3.25 3.25 0 1 0 6.5 0 a3.25 3.25 0 1 0 -6.5 0z" fill="black"></path><path d="M1361.75 481 a3.25 3.25 0 1 0 6.5 0 a3.25 3.25 0 1 0 -6.5 0zM1231.75 559 a3.25 3.25 0 1 0 6.5 0 a3.25 3.25 0 1 0 -6.5 0z" fill="black"></path><path d="M451.75 377 a3.25 3.25 0 1 0 6.5 0 a3.25 3.25 0 1 0 -6.5 0zM399.75 325 a3.25 3.25 0 1 0 6.5 0 a3.25 3.25 0 1 0 -6.5 0z" fill="black"></path><path d="M633.75 403 a3.25 3.25 0 1 0 6.5 0 a3.25 3.25 0 1 0 -6.5 0zM581.75 455 a3.25 3.25 0 1 0 6.5 0 a3.25 3.25 0 1 0 -6.5 0z" fill="black"></path><path d="M1049.75 455 a3.25 3.25 0 1 0 6.5 0 a3.25 3.25 0 1 0 -6.5 0zM893.75 481 a3.25 3.25 0 1 0 6.5 0 a3.25 3.25 0 1 0 -6.5 0z" fill="black"></path><path d="M165.75 169 a3.25 3.25 0 1 0 6.5 0 a3.25 3.25 0 1 0 -6.5 0zM321.75 91 a3.25 3.25 0 1 0 6.5 0 a3.25 3.25 0 1 0 -6.5 0z" fill="black"></path><path d="M217.75 533 a3.25 3.25 0 1 0 6.5 0 a3.25 3.25 0 1 0 -6.5 0zM165.75 559 a3.25 3.25 0 1 0 6.5 0 a3.25 3.25 0 1 0 -6.5 0z" fill="black"></path><path d="M1049.75 117 a3.25 3.25 0 1 0 6.5 0 a3.25 3.25 0 1 0 -6.5 0zM1049.75 195 a3.25 3.25 0 1 0 6.5 0 a3.25 3.25 0 1 0 -6.5 0z" fill="black"></path><path d="M997.75 507 a3.25 3.25 0 1 0 6.5 0 a3.25 3.25 0 1 0 -6.5 0zM1075.75 455 a3.25 3.25 0 1 0 6.5 0 a3.25 3.25 0 1 0 -6.5 0z" fill="black"></path><path d="M165.75 117 a3.25 3.25 0 1 0 6.5 0 a3.25 3.25 0 1 0 -6.5 0zM295.75 91 a3.25 3.25 0 1 0 6.5 0 a3.25 3.25 0 1 0 -6.5 0z" fill="black"></path><path d="M87.75 13 a3.25 3.25 0 1 0 6.5 0 a3.25 3.25 0 1 0 -6.5 0zM87.75 91 a3.25 3.25 0 1 0 6.5 0 a3.25 3.25 0 1 0 -6.5 0z" fill="black"></path><path d="M1231.75 143 a3.25 3.25 0 1 0 6.5 0 a3.25 3.25 0 1 0 -6.5 0zM1387.75 65 a3.25 3.25 0 1 0 6.5 0 a3.25 3.25 0 1 0 -6.5 0z" fill="black"></path><path d="M1023.75 403 a3.25 3.25 0 1 0 6.5 0 a3.25 3.25 0 1 0 -6.5 0zM893.75 325 a3.25 3.25 0 1 0 6.5 0 a3.25 3.25 0 1 0 -6.5 0z" fill="black"></path><path d="M61.75 39 a3.25 3.25 0 1 0 6.5 0 a3.25 3.25 0 1 0 -6.5 0zM9.75 143 a3.25 3.25 0 1 0 6.5 0 a3.25 3.25 0 1 0 -6.5 0z" fill="black"></path><path d="M711.75 221 a3.25 3.25 0 1 0 6.5 0 a3.25 3.25 0 1 0 -6.5 0zM685.75 377 a3.25 3.25 0 1 0 6.5 0 a3.25 3.25 0 1 0 -6.5 0z" fill="black"></path><path d="M1231.75 299 a3.25 3.25 0 1 0 6.5 0 a3.25 3.25 0 1 0 -6.5 0zM1361.75 169 a3.25 3.25 0 1 0 6.5 0 a3.25 3.25 0 1 0 -6.5 0z" fill="black"></path><path d="M815.75 429 a3.25 3.25 0 1 0 6.5 0 a3.25 3.25 0 1 0 -6.5 0zM841.75 299 a3.25 3.25 0 1 0 6.5 0 a3.25 3.25 0 1 0 -6.5 0z" fill="black"></path><path d="M477.75 481 a3.25 3.25 0 1 0 6.5 0 a3.25 3.25 0 1 0 -6.5 0zM529.75 533 a3.25 3.25 0 1 0 6.5 0 a3.25 3.25 0 1 0 -6.5 0z" fill="black"></path><path d="M633.75 507 a3.25 3.25 0 1 0 6.5 0 a3.25 3.25 0 1 0 -6.5 0zM711.75 507 a3.25 3.25 0 1 0 6.5 0 a3.25 3.25 0 1 0 -6.5 0z" fill="black"></path><path d="M737.75 221 a3.25 3.25 0 1 0 6.5 0 a3.25 3.25 0 1 0 -6.5 0zM971.75 247 a3.25 3.25 0 1 0 6.5 0 a3.25 3.25 0 1 0 -6.5 0z" fill="black"></path><path d="M87.75 247 a3.25 3.25 0 1 0 6.5 0 a3.25 3.25 0 1 0 -6.5 0zM35.75 195 a3.25 3.25 0 1 0 6.5 0 a3.25 3.25 0 1 0 -6.5 0z" fill="black"></path><path d="M373.75 403 a3.25 3.25 0 1 0 6.5 0 a3.25 3.25 0 1 0 -6.5 0zM321.75 377 a3.25 3.25 0 1 0 6.5 0 a3.25 3.25 0 1 0 -6.5 0z" fill="black"></path><path d="M763.75 169 a3.25 3.25 0 1 0 6.5 0 a3.25 3.25 0 1 0 -6.5 0zM971.75 195 a3.25 3.25 0 1 0 6.5 0 a3.25 3.25 0 1 0 -6.5 0z" fill="black"></path><path d="M113.75 13 a3.25 3.25 0 1 0 6.5 0 a3.25 3.25 0 1 0 -6.5 0zM113.75 65 a3.25 3.25 0 1 0 6.5 0 a3.25 3.25 0 1 0 -6.5 0z" fill="black"></path><path d="M61.75 273 a3.25 3.25 0 1 0 6.5 0 a3.25 3.25 0 1 0 -6.5 0zM113.75 273 a3.25 3.25 0 1 0 6.5 0 a3.25 3.25 0 1 0 -6.5 0z" fill="black"></path><path d="M217.75 325 a3.25 3.25 0 1 0 6.5 0 a3.25 3.25 0 1 0 -6.5 0zM217.75 429 a3.25 3.25 0 1 0 6.5 0 a3.25 3.25 0 1 0 -6.5 0z" fill="black"></path><path d="M451.75 325 a3.25 3.25 0 1 0 6.5 0 a3.25 3.25 0 1 0 -6.5 0zM477.75 351 a3.25 3.25 0 1 0 6.5 0 a3.25 3.25 0 1 0 -6.5 0z" fill="black"></path><path d="M1335.75 351 a3.25 3.25 0 1 0 6.5 0 a3.25 3.25 0 1 0 -6.5 0zM1153.75 481 a3.25 3.25 0 1 0 6.5 0 a3.25 3.25 0 1 0 -6.5 0z" fill="black"></path><path d="M1283.75 195 a3.25 3.25 0 1 0 6.5 0 a3.25 3.25 0 1 0 -6.5 0zM1335.75 169 a3.25 3.25 0 1 0 6.5 0 a3.25 3.25 0 1 0 -6.5 0z" fill="black"></path><path d="M503.75 169 a3.25 3.25 0 1 0 6.5 0 a3.25 3.25 0 1 0 -6.5 0zM451.75 65 a3.25 3.25 0 1 0 6.5 0 a3.25 3.25 0 1 0 -6.5 0z" fill="black"></path><path d="M867.75 65 a3.25 3.25 0 1 0 6.5 0 a3.25 3.25 0 1 0 -6.5 0zM711.75 65 a3.25 3.25 0 1 0 6.5 0 a3.25 3.25 0 1 0 -6.5 0z" fill="black"></path><path d="M1439.75 377 a3.25 3.25 0 1 0 6.5 0 a3.25 3.25 0 1 0 -6.5 0zM1439.75 507 a3.25 3.25 0 1 0 6.5 0 a3.25 3.25 0 1 0 -6.5 0z" fill="black"></path><path d="M1257.75 247 a3.25 3.25 0 1 0 6.5 0 a3.25 3.25 0 1 0 -6.5 0zM1179.75 195 a3.25 3.25 0 1 0 6.5 0 a3.25 3.25 0 1 0 -6.5 0z" fill="black"></path><path d="M555.75 117 a3.25 3.25 0 1 0 6.5 0 a3.25 3.25 0 1 0 -6.5 0zM659.75 65 a3.25 3.25 0 1 0 6.5 0 a3.25 3.25 0 1 0 -6.5 0z" fill="black"></path><path d="M555.75 143 a3.25 3.25 0 1 0 6.5 0 a3.25 3.25 0 1 0 -6.5 0zM477.75 143 a3.25 3.25 0 1 0 6.5 0 a3.25 3.25 0 1 0 -6.5 0z" fill="black"></path><path d="M1257.75 169 a3.25 3.25 0 1 0 6.5 0 a3.25 3.25 0 1 0 -6.5 0zM1257.75 221 a3.25 3.25 0 1 0 6.5 0 a3.25 3.25 0 1 0 -6.5 0z" fill="black"></path><path d="M373.75 559 a3.25 3.25 0 1 0 6.5 0 a3.25 3.25 0 1 0 -6.5 0zM425.75 559 a3.25 3.25 0 1 0 6.5 0 a3.25 3.25 0 1 0 -6.5 0z" fill="black"></path><path d="M763.75 247 a3.25 3.25 0 1 0 6.5 0 a3.25 3.25 0 1 0 -6.5 0zM737.75 377 a3.25 3.25 0 1 0 6.5 0 a3.25 3.25 0 1 0 -6.5 0z" fill="black"></path><path d="M191.75 221 a3.25 3.25 0 1 0 6.5 0 a3.25 3.25 0 1 0 -6.5 0zM269.75 143 a3.25 3.25 0 1 0 6.5 0 a3.25 3.25 0 1 0 -6.5 0z" fill="black"></path><path d="M269.75 351 a3.25 3.25 0 1 0 6.5 0 a3.25 3.25 0 1 0 -6.5 0zM243.75 403 a3.25 3.25 0 1 0 6.5 0 a3.25 3.25 0 1 0 -6.5 0z" fill="black"></path><path d="M295.75 195 a3.25 3.25 0 1 0 6.5 0 a3.25 3.25 0 1 0 -6.5 0zM243.75 221 a3.25 3.25 0 1 0 6.5 0 a3.25 3.25 0 1 0 -6.5 0z" fill="black"></path><path d="M425.75 455 a3.25 3.25 0 1 0 6.5 0 a3.25 3.25 0 1 0 -6.5 0zM477.75 455 a3.25 3.25 0 1 0 6.5 0 a3.25 3.25 0 1 0 -6.5 0z" fill="black"></path><path d="M139.75 351 a3.25 3.25 0 1 0 6.5 0 a3.25 3.25 0 1 0 -6.5 0zM113.75 299 a3.25 3.25 0 1 0 6.5 0 a3.25 3.25 0 1 0 -6.5 0z" fill="black"></path><path d="M295.75 559 a3.25 3.25 0 1 0 6.5 0 a3.25 3.25 0 1 0 -6.5 0zM217.75 559 a3.25 3.25 0 1 0 6.5 0 a3.25 3.25 0 1 0 -6.5 0z" fill="black"></path><path d="M1283.75 169 a3.25 3.25 0 1 0 6.5 0 a3.25 3.25 0 1 0 -6.5 0zM1283.75 117 a3.25 3.25 0 1 0 6.5 0 a3.25 3.25 0 1 0 -6.5 0z" fill="black"></path><path d="M9.75 117 a3.25 3.25 0 1 0 6.5 0 a3.25 3.25 0 1 0 -6.5 0zM35.75 13 a3.25 3.25 0 1 0 6.5 0 a3.25 3.25 0 1 0 -6.5 0z" fill="black"></path><path d="M789.75 351 a3.25 3.25 0 1 0 6.5 0 a3.25 3.25 0 1 0 -6.5 0zM815.75 299 a3.25 3.25 0 1 0 6.5 0 a3.25 3.25 0 1 0 -6.5 0z" fill="black"></path><path d="M1075.75 169 a3.25 3.25 0 1 0 6.5 0 a3.25 3.25 0 1 0 -6.5 0zM1179.75 117 a3.25 3.25 0 1 0 6.5 0 a3.25 3.25 0 1 0 -6.5 0z" fill="black"></path><path d="M503.75 65 a3.25 3.25 0 1 0 6.5 0 a3.25 3.25 0 1 0 -6.5 0zM555.75 65 a3.25 3.25 0 1 0 6.5 0 a3.25 3.25 0 1 0 -6.5 0z" fill="black"></path><path d="M243.75 351 a3.25 3.25 0 1 0 6.5 0 a3.25 3.25 0 1 0 -6.5 0zM321.75 325 a3.25 3.25 0 1 0 6.5 0 a3.25 3.25 0 1 0 -6.5 0z" fill="black"></path><path d="M1179.75 65 a3.25 3.25 0 1 0 6.5 0 a3.25 3.25 0 1 0 -6.5 0zM1023.75 39 a3.25 3.25 0 1 0 6.5 0 a3.25 3.25 0 1 0 -6.5 0z" fill="black"></path><path d="M399.75 455 a3.25 3.25 0 1 0 6.5 0 a3.25 3.25 0 1 0 -6.5 0zM347.75 455 a3.25 3.25 0 1 0 6.5 0 a3.25 3.25 0 1 0 -6.5 0z" fill="black"></path><path d="M269.75 533 a3.25 3.25 0 1 0 6.5 0 a3.25 3.25 0 1 0 -6.5 0zM373.75 533 a3.25 3.25 0 1 0 6.5 0 a3.25 3.25 0 1 0 -6.5 0z" fill="black"></path><path d="M191.75 169 a3.25 3.25 0 1 0 6.5 0 a3.25 3.25 0 1 0 -6.5 0zM165.75 247 a3.25 3.25 0 1 0 6.5 0 a3.25 3.25 0 1 0 -6.5 0z" fill="black"></path><path d="M9.75 13 a3.25 3.25 0 1 0 6.5 0 a3.25 3.25 0 1 0 -6.5 0zM9.75 65 a3.25 3.25 0 1 0 6.5 0 a3.25 3.25 0 1 0 -6.5 0z" fill="black"></path><path d="M737.75 325 a3.25 3.25 0 1 0 6.5 0 a3.25 3.25 0 1 0 -6.5 0zM737.75 247 a3.25 3.25 0 1 0 6.5 0 a3.25 3.25 0 1 0 -6.5 0z" fill="black"></path><path d="M971.75 351 a3.25 3.25 0 1 0 6.5 0 a3.25 3.25 0 1 0 -6.5 0zM919.75 325 a3.25 3.25 0 1 0 6.5 0 a3.25 3.25 0 1 0 -6.5 0z" fill="black"></path><path d="M919.75 403 a3.25 3.25 0 1 0 6.5 0 a3.25 3.25 0 1 0 -6.5 0zM893.75 351 a3.25 3.25 0 1 0 6.5 0 a3.25 3.25 0 1 0 -6.5 0z" fill="black"></path><path d="M1309.75 507 a3.25 3.25 0 1 0 6.5 0 a3.25 3.25 0 1 0 -6.5 0zM1413.75 533 a3.25 3.25 0 1 0 6.5 0 a3.25 3.25 0 1 0 -6.5 0z" fill="black"></path><path d="M789.75 403 a3.25 3.25 0 1 0 6.5 0 a3.25 3.25 0 1 0 -6.5 0zM815.75 325 a3.25 3.25 0 1 0 6.5 0 a3.25 3.25 0 1 0 -6.5 0z" fill="black"></path><path d="M1361.75 507 a3.25 3.25 0 1 0 6.5 0 a3.25 3.25 0 1 0 -6.5 0zM1413.75 481 a3.25 3.25 0 1 0 6.5 0 a3.25 3.25 0 1 0 -6.5 0z" fill="black"></path><path d="M1049.75 403 a3.25 3.25 0 1 0 6.5 0 a3.25 3.25 0 1 0 -6.5 0zM971.75 377 a3.25 3.25 0 1 0 6.5 0 a3.25 3.25 0 1 0 -6.5 0z" fill="black"></path><path d="M607.75 221 a3.25 3.25 0 1 0 6.5 0 a3.25 3.25 0 1 0 -6.5 0zM555.75 221 a3.25 3.25 0 1 0 6.5 0 a3.25 3.25 0 1 0 -6.5 0z" fill="black"></path><path d="M477.75 65 a3.25 3.25 0 1 0 6.5 0 a3.25 3.25 0 1 0 -6.5 0zM529.75 91 a3.25 3.25 0 1 0 6.5 0 a3.25 3.25 0 1 0 -6.5 0z" fill="black"></path><path d="M815.75 247 a3.25 3.25 0 1 0 6.5 0 a3.25 3.25 0 1 0 -6.5 0zM919.75 247 a3.25 3.25 0 1 0 6.5 0 a3.25 3.25 0 1 0 -6.5 0z" fill="black"></path><path d="M763.75 91 a3.25 3.25 0 1 0 6.5 0 a3.25 3.25 0 1 0 -6.5 0zM711.75 91 a3.25 3.25 0 1 0 6.5 0 a3.25 3.25 0 1 0 -6.5 0z" fill="black"></path><path d="M61.75 195 a3.25 3.25 0 1 0 6.5 0 a3.25 3.25 0 1 0 -6.5 0zM87.75 143 a3.25 3.25 0 1 0 6.5 0 a3.25 3.25 0 1 0 -6.5 0z" fill="black"></path><path d="M503.75 351 a3.25 3.25 0 1 0 6.5 0 a3.25 3.25 0 1 0 -6.5 0zM555.75 351 a3.25 3.25 0 1 0 6.5 0 a3.25 3.25 0 1 0 -6.5 0z" fill="black"></path><path d="M581.75 13 a3.25 3.25 0 1 0 6.5 0 a3.25 3.25 0 1 0 -6.5 0zM633.75 13 a3.25 3.25 0 1 0 6.5 0 a3.25 3.25 0 1 0 -6.5 0z" fill="black"></path><path d="M269.75 507 a3.25 3.25 0 1 0 6.5 0 a3.25 3.25 0 1 0 -6.5 0zM321.75 507 a3.25 3.25 0 1 0 6.5 0 a3.25 3.25 0 1 0 -6.5 0z" fill="black"></path></mask></defs></svg>