<?xml version="1.0" encoding="utf-8"?>
<!-- Generator: Adobe Illustrator 24.3.0, SVG Export Plug-In . SVG Version: 6.00 Build 0)  -->
<svg version="1.1" id="Layer_1" xmlns="http://www.w3.org/2000/svg" xmlns:xlink="http://www.w3.org/1999/xlink" x="0px" y="0px"
	 viewBox="0 0 500 500" style="enable-background:new 0 0 500 500;" xml:space="preserve">
<style type="text/css">
	.st0{fill:#805AED;}
</style>
<path class="st0" d="M203.28,97.25c0.56,5.98-1.27,11.6-2.86,17.17c-0.95,3.32-2.65,6.47-4.28,9.55
	c-2.79,5.28-6.12,10.22-10.42,14.43c-6.03,5.9-12.65,10.95-20.63,13.99c-0.31,0.12-0.61,0.27-0.92,0.38
	c-3.33,1.19-4.65,3.47-4.64,7.08c0.08,32.42,0.02,64.84,0.02,97.25c0,1.31-0.22,2.81,1.12,3.64c1.36,0.85,2.55-0.1,3.71-0.73
	c11.01-6.03,22.23-11.53,34.25-15.35c10.95-3.49,21.9-6.94,33.08-9.64c9.14-2.21,18.26-4.5,27.4-6.71
	c13.32-3.22,26.06-8.12,38.66-13.39c1.53-0.64,2.99-1.48,4.4-2.35c7.29-4.47,14.59-8.97,20.31-15.45c4.76-5.4,9.1-11.01,11.71-17.98
	c2.41-6.44,3.44-13.1,4.81-19.73c0.7-3.38-0.27-5.25-3.32-6.42c-7.59-2.91-13.59-8.18-19.88-13.03c-3.35-2.58-5.93-5.84-8.01-9.5
	c-2.2-3.87-4.35-7.77-6.43-11.72c-2.6-4.95-3.58-10.36-4.25-15.84c-0.9-7.36,0.01-14.65,1.23-21.88c0.52-3.09,1.59-6.15,2.86-9.03
	c3.71-8.37,8.45-16.15,15.32-22.3c7.21-6.46,15.2-11.67,24.75-14.31c7.63-2.11,15.27-2.45,23.1-2.16c5.48,0.2,10.61,1.62,15.7,3.27
	c2.67,0.86,5.2,2.23,7.69,3.56c5.28,2.82,10.19,6.2,14.47,10.4c6.35,6.23,11.25,13.41,14.46,21.78c2.36,6.13,3.52,12.47,4.21,18.95
	c0.71,6.64-0.16,13.1-1.58,19.57c-0.99,4.51-2.88,8.61-5,12.61c-2.75,5.19-5.7,10.31-9.86,14.53c-5.96,6.06-12.79,11.01-20.76,14.04
	c-4.53,1.72-6.78,4.44-7.17,9.33c-0.82,10.53-3.92,20.61-7.31,30.53c-3.15,9.2-8.41,17.32-14.23,25.11
	c-5.62,7.52-12.16,14.07-19.79,19.45c-5.41,3.81-11.18,7.09-16.82,10.57c-1.09,0.68-2.27,1.26-3.46,1.73
	c-8.49,3.31-16.75,7.19-25.51,9.85c-10.16,3.09-20.33,6.08-30.64,8.62c-10.83,2.66-21.5,5.99-32.34,8.61
	c-13.85,3.35-27.14,8.19-39.63,14.92c-6.14,3.31-11.81,7.69-16.27,13.26c-2.85,3.55-5.26,7.46-6.8,11.75
	c-1.09,3.02-1.51,6.29-2.24,9.44c-1.21,5.22-1.53,10.53-1.89,15.85c-0.21,3.17,1.07,5.02,3.97,6.26c3.89,1.67,7.84,3.36,11.41,5.61
	c8.17,5.15,14.57,12.11,19.41,20.47c3.97,6.86,7.19,14.04,8.3,21.95c0.82,5.83,0.72,11.72,0.06,17.58
	c-0.64,5.71-2.16,11.24-4.4,16.48c-1.62,3.8-4.02,7.28-6.2,10.82c-1.26,2.06-2.74,3.98-4.15,5.94c-1.47,2.05-3.24,3.77-5.34,5.2
	c-3.64,2.49-7.17,5.15-10.84,7.59c-7.11,4.71-15.11,6.71-23.47,7.84c-10.56,1.43-20.73-0.16-30.52-3.9
	c-5.67-2.16-10.79-5.58-15.58-9.38c-2.47-1.96-5.18-3.79-7.14-6.2c-6.03-7.44-11.06-15.44-13.75-24.84
	c-2.04-7.14-2.18-14.34-2.2-21.63c-0.02-11.12,4.56-20.66,9.97-29.96c2.94-5.05,7.29-8.86,11.22-13.03
	c3.92-4.15,9.07-6.42,14.06-8.91c1.45-0.72,2.96-1.35,4.43-2.04c2.02-0.94,2.98-2.54,2.98-4.78c-0.01-7,0-14,0-21
	c0-50.75-0.01-101.5-0.01-152.26c0-3.21-0.04-6.42,0.02-9.63c0.06-2.97-1.24-5-3.91-6.23c-1.85-0.85-3.7-1.73-5.52-2.65
	c-8.95-4.47-16.2-11.02-21.98-19.05c-5.29-7.35-9.25-15.49-10.67-24.54c-0.86-5.51-1-11.11-0.37-16.69c0.27-2.4,0.06-4.89,0.62-7.2
	c1.27-5.26,2.91-10.4,5.49-15.23c2.69-5.02,5.96-9.62,9.36-14.15c2.44-3.25,5.71-5.58,8.94-7.93c6.08-4.44,12.5-8.11,19.89-10.17
	c7.31-2.04,14.62-2.57,22.1-2.01c0.91,0.07,1.83,0.08,2.75,0.15c7.6,0.56,14.62,2.89,21.28,6.57c5.87,3.25,11.57,6.78,15.99,11.84
	c4.32,4.94,8.18,10.29,11.12,16.24c3.4,6.89,5.48,14.1,5.97,21.77C203.04,92.34,203.15,94.8,203.28,97.25z M358.9,119.14
	c6.47-0.01,13.37-2.62,17.58-7.08c2.25-2.39,4.48-5.12,5.68-8.11c1.56-3.9,2.02-8.2,1.11-12.51c-0.64-3.01-1.19-5.94-2.86-8.68
	c-2.75-4.52-6.76-7.47-11.32-9.67c-3.41-1.64-7.21-2.66-11.01-2.26c-5.59,0.59-10.91,2.08-15.32,5.98
	c-3.11,2.75-5.51,5.87-6.52,9.95c-0.45,1.82-0.95,3.63-1.25,5.47c-0.25,1.55-0.47,3.16-0.3,4.71c0.65,6.06,2.95,11.38,7.3,15.76
	C346.76,117.5,352.87,118.63,358.9,119.14z M142.16,119.13c1.41-0.25,4.12-0.41,6.62-1.23c4.77-1.57,9.05-4.01,11.79-8.5
	c0.54-0.89,1.25-1.68,1.72-2.6c0.79-1.54,1.54-3.12,2.13-4.75c0.49-1.36,0.9-2.8,1.05-4.23c0.18-1.67,0.2-3.39-0.01-5.05
	c-0.2-1.64-0.68-3.26-1.19-4.84c-1.38-4.24-3.32-8.16-6.89-11.07c-4.26-3.47-9.2-5.28-14.61-5.91c-1.07-0.12-2.18-0.26-3.22-0.09
	c-4.83,0.79-9.45,2-13.56,4.98c-3.91,2.83-6.44,6.42-7.8,10.95c-0.54,1.79-0.98,3.62-1.51,5.41c-0.61,2.05-0.69,4.08-0.04,6.15
	c0.53,1.71,0.94,3.46,1.51,5.15c1.31,3.87,3.62,7.2,6.63,9.84C129.34,117.32,134.9,118.97,142.16,119.13z M141.52,429.18
	c4.81-0.3,9.99-1.36,14.51-4.88c2.32-1.81,3.9-4.07,5.42-6.46c3.55-5.57,5.57-11.44,3.28-18.08c-0.11-0.31-0.16-0.65-0.24-0.97
	c-1.03-4.42-3.06-8.3-6.53-11.27c-3.55-3.05-7.63-5.24-12.19-6.36c-1.92-0.47-3.96-0.88-5.9-0.72c-6.1,0.53-11.35,3.23-15.86,7.24
	c-2.7,2.4-4.73,5.38-5.74,8.93c-0.58,2.04-1.3,4.07-1.59,6.16c-0.26,1.85-0.21,3.81,0.08,5.66c0.28,1.79,0.93,3.55,1.64,5.23
	c1.51,3.6,3.45,7.01,6.38,9.59C129.33,427.27,134.78,429.13,141.52,429.18z"/>
</svg>
