<?xml version="1.0" encoding="utf-8"?>
<!-- Generator: Adobe Illustrator 27.5.0, SVG Export Plug-In . SVG Version: 6.00 Build 0)  -->
<svg version="1.1" xmlns="http://www.w3.org/2000/svg" xmlns:xlink="http://www.w3.org/1999/xlink" x="0px" y="0px"
	 viewBox="0 0 500 500" style="enable-background:new 0 0 500 500;" xml:space="preserve">
<g id="BACKGROUND">
</g>
<g id="OBJECTS">
	<g>
		<path d="M228.331,112.728c-65.428,0-118.657,53.229-118.657,118.657c0,65.427,53.229,118.657,118.657,118.657
			c65.428,0,118.657-53.229,118.657-118.657C346.988,165.956,293.759,112.728,228.331,112.728z M186.116,312.89
			c2.584,5.791,5.421,10.947,8.469,15.446c-11.885-4.149-22.779-10.423-32.227-18.368c5.624-4.732,11.678-8.813,18.072-12.193
			C182.119,303.099,184.008,308.167,186.116,312.89z M195.188,291.417c10.536-3.583,21.699-5.454,33.144-5.454
			c11.451,0,22.613,1.869,33.145,5.45c-8.128,26.546-21.061,42.629-33.145,42.629C216.248,334.041,203.315,317.96,195.188,291.417z
			 M180.43,164.994c-6.394-3.381-12.448-7.461-18.072-12.193c9.448-7.945,20.342-14.219,32.226-18.368
			c-3.048,4.499-5.885,9.655-8.469,15.446C184.008,154.602,182.119,159.669,180.43,164.994z M228.331,128.727
			c12.084,0,25.017,16.083,33.145,42.629c-10.532,3.581-21.694,5.45-33.145,5.45c-11.445,0-22.608-1.871-33.144-5.454
			C203.315,144.809,216.248,128.727,228.331,128.727z M270.547,149.878c-2.584-5.791-5.421-10.947-8.469-15.446
			c11.885,4.149,22.779,10.423,32.226,18.368c-5.624,4.734-11.678,8.813-18.071,12.195
			C274.544,159.67,272.654,154.602,270.547,149.878z M228.331,192.806c12.791,0,25.272-2.013,37.085-5.884
			c2.251,10.993,3.728,23.236,4.155,36.462h-82.479c0.428-13.227,1.904-25.471,4.155-36.464
			C203.063,190.794,215.546,192.806,228.331,192.806z M269.571,239.384c-0.428,13.227-1.904,25.47-4.155,36.463
			c-11.812-3.871-24.294-5.884-37.085-5.884c-12.785,0-25.268,2.012-37.084,5.886c-2.251-10.993-3.728-23.237-4.155-36.464H269.571z
			 M270.547,312.89c2.107-4.723,3.997-9.791,5.686-15.116c6.393,3.381,12.447,7.461,18.071,12.195
			c-9.448,7.945-20.342,14.219-32.227,18.368C265.126,323.837,267.963,318.681,270.547,312.89z M280.448,281.963
			c2.912-13.241,4.654-27.643,5.115-42.579h45.115c-1.75,22.6-10.852,43.171-24.91,59.32
			C298.001,291.995,289.495,286.393,280.448,281.963z M285.563,223.384c-0.46-14.935-2.203-29.337-5.115-42.578
			c9.046-4.43,17.552-10.032,25.32-16.742c14.058,16.149,23.16,36.72,24.91,59.321H285.563z M150.898,164.059
			c7.766,6.707,16.27,12.313,25.316,16.743c-2.913,13.242-4.655,27.645-5.116,42.582h-45.115
			C127.735,200.782,136.838,180.209,150.898,164.059z M125.984,239.384h45.115c0.46,14.937,2.203,29.34,5.116,42.583
			c-9.046,4.43-17.55,10.035-25.316,16.743C136.838,282.559,127.735,261.987,125.984,239.384z"/>
		<path d="M296.028,259.718H160.634c-6.6,0-12-5.4-12-12v-32.667c0-6.6,5.4-12,12-12h135.394c6.6,0,12,5.4,12,12v32.667
			C308.028,254.318,302.628,259.718,296.028,259.718z"/>
		
			<text transform="matrix(1 0 0 1 160.1399 246.7686)" style="fill:#FFFFFF; font-family:'Comfortaa-Bold'; font-size:58.1254px; letter-spacing:5;">www</text>
	</g>
	<g>
		<path d="M379.618,347.976c-2.138,0-4.147-0.832-5.657-2.344l-20.601-20.602l-8.314,15.436c-1.398,2.596-4.092,4.208-7.032,4.208
			c-3.455,0-6.51-2.198-7.601-5.471l-24.316-72.95c-0.823-2.47-0.426-5.093,1.09-7.195c1.508-2.092,3.931-3.341,6.479-3.341
			c0.861,0,1.719,0.141,2.55,0.417l72.949,24.316c3.078,1.025,5.163,3.671,5.441,6.902c0.278,3.232-1.322,6.194-4.179,7.732
			l-15.436,8.312L395.594,324c1.511,1.51,2.344,3.519,2.344,5.656c0,2.138-0.833,4.146-2.345,5.657l-10.318,10.319
			C383.764,347.144,381.755,347.976,379.618,347.976z"/>
		<path style="fill:#FFFFFF;" d="M313.666,259.718c0.418,0,0.85,0.067,1.285,0.212l72.95,24.316
			c3.326,1.109,3.718,5.655,0.632,7.317l-15.437,8.312c-2.359,1.27-2.827,4.456-0.932,6.35l20.602,20.602
			c1.562,1.562,1.562,4.095,0,5.657l-5.16,5.16l-5.16,5.16c-0.781,0.781-1.805,1.172-2.828,1.172s-2.047-0.39-2.828-1.172
			l-20.602-20.602c-0.793-0.793-1.812-1.172-2.822-1.172c-1.403,0-2.79,0.732-3.529,2.104l-8.312,15.437
			c-0.765,1.421-2.14,2.104-3.511,2.104c-1.607,0-3.207-0.941-3.806-2.736l-24.317-72.95
			C308.994,262.297,311.074,259.718,313.666,259.718 M313.666,251.718c-3.832,0-7.467,1.87-9.725,5.002
			c-2.277,3.159-2.874,7.095-1.639,10.8l24.317,72.95c1.636,4.908,6.215,8.206,11.395,8.206c4.414,0,8.459-2.418,10.555-6.311
			l5.763-10.703l16.801,16.801c2.267,2.266,5.28,3.515,8.485,3.515c3.205,0,6.219-1.248,8.485-3.515l5.16-5.16l5.16-5.16
			c4.679-4.679,4.679-12.292,0-16.97l-16.801-16.801l10.703-5.763c4.219-2.272,6.678-6.824,6.266-11.598
			c-0.412-4.774-3.615-8.837-8.161-10.352l-72.95-24.317C316.241,251.927,314.958,251.718,313.666,251.718L313.666,251.718z"/>
	</g>
</g>
<g id="DESIGNED_BY_FREEPIK">
	<g>
		<g id="XMLID_319_">
			<g id="XMLID_338_">
				<path id="XMLID_346_" style="fill:#1D262D;" d="M260.104,465.465c-0.432,0.443-0.803,0.931-1.108,1.453l-0.465-0.241
					c-0.067-0.298-0.349-0.503-0.659-0.466c-0.331,0.039-0.568,0.339-0.529,0.67s0.339,0.568,0.67,0.529
					c0.065-0.008,0.127-0.026,0.184-0.052l0.451,0.234c-0.251,0.554-0.433,1.139-0.539,1.744l0.746,0.132
					c0.23-1.306,0.85-2.507,1.792-3.473L260.104,465.465z"/>
				<path id="XMLID_345_" style="fill:#1D262D;" d="M265.592,463.163c-0.171,0-0.341,0.006-0.51,0.017l-0.074-0.626
					c0.188-0.149,0.296-0.389,0.266-0.645c-0.046-0.393-0.402-0.674-0.795-0.628s-0.674,0.402-0.628,0.795
					c0.03,0.254,0.189,0.461,0.405,0.564l0.073,0.624c-0.714,0.116-1.403,0.332-2.06,0.646l0.327,0.684
					c0.934-0.447,1.942-0.673,2.995-0.673c0.496,0,0.993,0.053,1.475,0.158l0.161-0.741
					C266.693,463.222,266.142,463.163,265.592,463.163z"/>
				<path id="XMLID_344_" style="fill:#1D262D;" d="M272.194,465.711c0.331-0.04,0.566-0.341,0.525-0.672
					c-0.04-0.331-0.341-0.566-0.672-0.526c-0.309,0.038-0.535,0.304-0.53,0.609l-0.416,0.363c-0.418-0.43-0.89-0.813-1.408-1.139
					l-0.404,0.641c1.134,0.715,2.021,1.726,2.563,2.925l0.691-0.313c-0.251-0.554-0.568-1.072-0.942-1.545l0.402-0.351
					C272.065,465.716,272.129,465.719,272.194,465.711z"/>
				<path id="XMLID_343_" style="fill:#1D262D;" d="M265.044,473.372c-0.386,0.023-0.775,0.035-1.157,0.035
					c-0.88,0-1.733-0.061-2.478-0.179c-0.39-0.062-0.846-0.155-1.27-0.292c1.046,1.861,3.069,3.125,5.388,3.125
					c2.855,0,5.262-1.916,5.95-4.504c-0.682,0.449-1.505,0.825-2.459,1.123C267.839,473.047,266.464,473.286,265.044,473.372z"/>
				<path id="XMLID_339_" style="fill:#1D262D;" d="M265.592,464.68c-3.352,0-6.08,2.666-6.08,5.943
					c0,0.426,0.046,0.849,0.137,1.261c0.674,0.483,2.706,0.89,5.348,0.731c2.879-0.173,5.297-0.957,6.672-2.159
					c-0.005-0.195-0.021-0.39-0.045-0.582C271.244,466.913,268.65,464.68,265.592,464.68z M263.432,471.194
					c-1.02,0-1.85-0.83-1.85-1.85c0-1.02,0.83-1.85,1.85-1.85c1.02,0,1.85,0.83,1.85,1.85
					C265.282,470.365,264.452,471.194,263.432,471.194z M268.17,470.286c-0.75,0-1.36-0.61-1.36-1.36s0.61-1.361,1.36-1.361
					c0.75,0,1.361,0.61,1.361,1.361S268.92,470.286,268.17,470.286z"/>
			</g>
			<path id="XMLID_336_" style="fill:#1D262D;" d="M281.595,466.547c-0.295-0.116-0.806-0.309-1.382-0.237
				c-0.551,0.069-0.844,0.341-0.844,1.007v0.866h2.228v1.717h-2.228v5.455h-1.932v-5.455h-1.34v-1.717h1.34v-0.888
				c0-1.68,0.896-2.783,2.568-2.783c0.642,0,1.157,0.122,1.59,0.308L281.595,466.547z"/>
			<path id="XMLID_334_" style="fill:#1D262D;" d="M286.298,469.879c-0.177-0.03-0.358-0.046-0.526-0.046
				c-0.896,0-1.51,0.548-1.51,1.614v3.908h-1.932v-7.172h1.873v0.785c0.451-0.673,1.14-0.977,2.021-0.977
				c0.414,0,0.848,0.128,1.094,0.337L286.298,469.879z"/>
			<path id="XMLID_331_" style="fill:#1D262D;" d="M293.965,471.757c0,0.222-0.015,0.489-0.037,0.651h-5.085
				c0.207,1.036,0.933,1.488,1.843,1.488c0.622,0,1.295-0.252,1.813-0.688l1.132,1.243c-0.814,0.748-1.85,1.088-3.057,1.088
				c-2.198,0-3.723-1.495-3.723-3.753c0-2.258,1.48-3.797,3.627-3.797C292.544,467.99,293.958,469.522,293.965,471.757z
				 M288.851,471.091h3.175c-0.177-0.918-0.733-1.436-1.562-1.436C289.554,469.655,289.021,470.203,288.851,471.091z"/>
			<path id="XMLID_328_" style="fill:#1D262D;" d="M301.618,471.757c0,0.222-0.015,0.489-0.037,0.651h-5.085
				c0.207,1.036,0.932,1.488,1.843,1.488c0.622,0,1.295-0.252,1.813-0.688l1.132,1.243c-0.814,0.748-1.85,1.088-3.057,1.088
				c-2.198,0-3.723-1.495-3.723-3.753c0-2.258,1.48-3.797,3.627-3.797C300.197,467.99,301.611,469.522,301.618,471.757z
				 M296.504,471.091h3.175c-0.178-0.918-0.733-1.436-1.562-1.436C297.207,469.655,296.674,470.203,296.504,471.091z"/>
			<path id="XMLID_325_" style="fill:#1D262D;" d="M309.964,471.764c0,2.154-1.495,3.775-3.471,3.775
				c-0.962,0-1.643-0.378-2.109-0.933v3.708h-1.924v-10.133h1.887v0.792c0.466-0.585,1.155-0.984,2.139-0.984
				C308.469,467.99,309.964,469.61,309.964,471.764z M304.287,471.764c0,1.132,0.747,1.976,1.843,1.976
				c1.14,0,1.85-0.881,1.85-1.976c0-1.095-0.71-1.976-1.85-1.976C305.035,469.788,304.287,470.632,304.287,471.764z"/>
			<path id="XMLID_322_" style="fill:#1D262D;" d="M313.068,465.836c0,0.696-0.54,1.229-1.236,1.229
				c-0.696,0-1.229-0.533-1.229-1.229c0-0.696,0.533-1.243,1.229-1.243C312.527,464.592,313.068,465.14,313.068,465.836z
				 M312.809,475.354h-1.932v-7.172h1.932V475.354z"/>
			<path id="XMLID_320_" style="fill:#1D262D;" d="M316.032,470.736l2.702-2.554h2.368l-3.479,3.375l3.501,3.797h-2.376
				l-2.716-2.901v2.901H314.1v-10.658h1.932V470.736z"/>
		</g>
		<g>
			<path style="fill:#1D262D;" d="M184.412,475.289v-1.055c-0.527,0.718-1.391,1.23-2.387,1.23c-1.846,0-3.149-1.406-3.149-3.706
				c0-2.256,1.289-3.721,3.149-3.721c0.952,0,1.816,0.469,2.387,1.245v-3.765h1.099v9.77H184.412z M184.412,473.37v-3.208
				c-0.395-0.615-1.245-1.143-2.124-1.143c-1.421,0-2.27,1.172-2.27,2.739c0,1.567,0.85,2.724,2.27,2.724
				C183.168,474.483,184.017,473.986,184.412,473.37z"/>
			<path style="fill:#1D262D;" d="M186.932,471.744c0-2.051,1.465-3.706,3.486-3.706c2.139,0,3.398,1.67,3.398,3.794v0.279h-5.727
				c0.088,1.333,1.025,2.446,2.549,2.446c0.805,0,1.626-0.322,2.182-0.894l0.527,0.718c-0.703,0.703-1.655,1.084-2.812,1.084
				C188.44,475.465,186.932,473.956,186.932,471.744z M190.403,468.947c-1.509,0-2.256,1.274-2.314,2.358h4.643
				C192.718,470.25,192.015,468.947,190.403,468.947z"/>
			<path style="fill:#1D262D;" d="M194.607,474.351l0.571-0.791c0.469,0.542,1.362,1.011,2.329,1.011c1.084,0,1.67-0.513,1.67-1.216
				c0-1.714-4.38-0.659-4.38-3.281c0-1.098,0.952-2.036,2.636-2.036c1.201,0,2.051,0.454,2.622,1.026l-0.513,0.762
				c-0.424-0.513-1.201-0.894-2.109-0.894c-0.967,0-1.567,0.483-1.567,1.113c0,1.552,4.38,0.527,4.38,3.281
				c0,1.187-0.952,2.138-2.783,2.138C196.306,475.465,195.325,475.113,194.607,474.351z"/>
			<path style="fill:#1D262D;" d="M201.477,466.471c0-0.41,0.337-0.747,0.732-0.747c0.41,0,0.747,0.337,0.747,0.747
				c0,0.41-0.337,0.732-0.747,0.732C201.814,467.203,201.477,466.881,201.477,466.471z M201.667,475.289v-7.075h1.099v7.075H201.667
				z"/>
			<path style="fill:#1D262D;" d="M204.582,477.105l0.556-0.82c0.586,0.703,1.289,0.967,2.3,0.967c1.172,0,2.27-0.571,2.27-2.124
				v-1.011c-0.513,0.718-1.377,1.26-2.373,1.26c-1.845,0-3.149-1.377-3.149-3.662c0-2.27,1.289-3.677,3.149-3.677
				c0.952,0,1.802,0.469,2.373,1.245v-1.069h1.098v6.87c0,2.344-1.641,3.076-3.369,3.076
				C206.237,478.16,205.417,477.926,204.582,477.105z M209.709,473.253v-3.091c-0.381-0.615-1.23-1.143-2.109-1.143
				c-1.421,0-2.27,1.128-2.27,2.695c0,1.553,0.849,2.695,2.27,2.695C208.478,474.41,209.328,473.868,209.709,473.253z"/>
			<path style="fill:#1D262D;" d="M217.413,475.289v-4.629c0-1.245-0.63-1.641-1.582-1.641c-0.865,0-1.685,0.527-2.095,1.099v5.17
				h-1.099v-7.075h1.099v1.025c0.498-0.586,1.464-1.201,2.519-1.201c1.48,0,2.256,0.747,2.256,2.285v4.966H217.413z"/>
			<path style="fill:#1D262D;" d="M219.932,471.744c0-2.051,1.465-3.706,3.486-3.706c2.139,0,3.398,1.67,3.398,3.794v0.279h-5.727
				c0.088,1.333,1.025,2.446,2.549,2.446c0.806,0,1.626-0.322,2.183-0.894l0.527,0.718c-0.703,0.703-1.655,1.084-2.812,1.084
				C221.441,475.465,219.932,473.956,219.932,471.744z M223.404,468.947c-1.509,0-2.256,1.274-2.314,2.358h4.643
				C225.718,470.25,225.015,468.947,223.404,468.947z"/>
			<path style="fill:#1D262D;" d="M233.35,475.289v-1.055c-0.527,0.718-1.392,1.23-2.388,1.23c-1.846,0-3.149-1.406-3.149-3.706
				c0-2.256,1.289-3.721,3.149-3.721c0.952,0,1.817,0.469,2.388,1.245v-3.765h1.098v9.77H233.35z M233.35,473.37v-3.208
				c-0.396-0.615-1.245-1.143-2.124-1.143c-1.421,0-2.27,1.172-2.27,2.739c0,1.567,0.849,2.724,2.27,2.724
				C232.105,474.483,232.954,473.986,233.35,473.37z"/>
			<path style="fill:#1D262D;" d="M239.692,475.289v-9.77h1.098v3.765c0.572-0.776,1.421-1.245,2.388-1.245
				c1.845,0,3.149,1.465,3.149,3.721c0,2.299-1.304,3.706-3.149,3.706c-0.996,0-1.86-0.513-2.388-1.23v1.055H239.692z
				 M242.9,474.483c1.436,0,2.285-1.157,2.285-2.724c0-1.568-0.85-2.739-2.285-2.739c-0.864,0-1.728,0.527-2.109,1.143v3.208
				C241.171,473.986,242.036,474.483,242.9,474.483z"/>
			<path style="fill:#1D262D;" d="M247.528,477.061c0.161,0.073,0.425,0.117,0.601,0.117c0.483,0,0.805-0.161,1.055-0.747
				l0.469-1.069l-2.959-7.148h1.187l2.358,5.8l2.344-5.8h1.201l-3.545,8.51c-0.425,1.025-1.143,1.421-2.08,1.435
				c-0.234,0-0.601-0.044-0.805-0.103L247.528,477.061z"/>
		</g>
	</g>
</g>
</svg>
